<?xml version="1.0" encoding="UTF-8"?>
<svg xmlns="http://www.w3.org/2000/svg" version="1.1" viewBox="0 0 792 612">
  <!-- Generator: Adobe Illustrator 29.3.1, SVG Export Plug-In . SVG Version: 2.1.0 Build 151)  -->
  <defs>
    <style>
      .st0, .st1 {
        fill: #fff;
      }

      .st0, .st2 {
        font-family: Arial-Black, 'Arial Black';
        font-size: 24px;
        font-weight: 800;
        letter-spacing: .2em;
      }

      .st3 {
        fill: #87c659;
      }

      .st4, .st2 {
        fill: #231f20;
      }

      .st5, .st6 {
        display: none;
      }

      .st6 {
        fill: #8dc63f;
      }
    </style>
  </defs>
  <g id="Layer_4">
    <path class="st3" d="M298.1,539.2H40.8v11.2h254.7c.4-3.9,1.3-7.7,2.7-11.2Z"/>
    <path class="st3" d="M304.2,581.7H40.8v10.4h276.4c-5.1-2.5-9.5-6-13-10.4Z"/>
    <path class="st3" d="M295.5,560.3H40.8v10.7h257.3c-1.3-3.4-2.2-6.9-2.6-10.7Z"/>
    <path class="st3" d="M315.9,519.1c.5-.2,1-.5,1.5-.7H40.8v10.4h263.4c3.2-4,7.2-7.3,11.8-9.7Z"/>
    <g id="club">
      <g>
        <path class="st4" d="M554.3,537c.6-.1,1.2-.2,1.8-.3-.6,0-1.2.2-1.8.3Z"/>
        <path class="st4" d="M552.2,537.4c.6-.1,1.2-.3,1.8-.4-.6.1-1.2.2-1.8.4Z"/>
        <path class="st4" d="M551.9,537.5c-.6.1-1.3.3-1.9.4h0c.6-.2,1.3-.3,1.9-.4Z"/>
        <path class="st4" d="M556.3,536.6c.6,0,1.2-.1,1.8-.2-.6,0-1.2,0-1.8.2Z"/>
        <path class="st4" d="M540.8,538.8c1.2-.2,2.3-.4,3.3-.6,1.4-.3,3-.7,4.6-1,3.2-.8,6.5-1.6,9.3-1.7.8,0,1.5,0,2.2,0,1,0,2,.1,3.2,0,3.7-.7,8-5.3,11.5-9,1.2-1.3,2.3-2.4,3.3-3.4,0,0,0,0,.1-.1-3.6-3.3-8.1-5.5-13.3-6.1-1.9,3.4-4,6.8-6.3,8.2-2.2,1.3-4,1-5.8.7-.9-.2-1.8-.3-2.8-.3-2.6,0-4.7.6-6.8,1.6-.9,1.3-2,2.7-2.3,2.7-.2,0-.6-.2-.6-.4v-.8c-.7.4-1.3.8-2,1.2-1.8,1.1-3.7,2.3-5.8,3.2-1.9.8-5.8,2.2-7.7,2.3-.8,0-1.5-.5-2.2-.9-.4-.3-.8-.5-1.1-.7-.5-.2-1.2-.4-1.8-.6h-.4c-.2-.2-.4-.2-.7-.3-1.5-.5-2.7-.8-3.1,0-.7,2.7-1.6,5.4-2.4,8.1-1,3-1.9,6.1-2.7,9.2,0,2.7,0,5.4,0,8,.6.8,1.4,1.3,2.2,1.3,0,0,0,0,0,0,.7,0,1.4-.4,1.8-1.3.2-.4.5-1.2.8-2,.9-2.7,1.6-4.6,2.7-5,.3,0,.5,0,.7,0,.1,0,.3,0,.3,0,1.6-.5,3.9-2.5,4.1-4,0-.3,0-.5,0-.7,0-.6,0-.9.7-1.6,4-3.8,11.1-5,16.8-5.9Z"/>
        <path class="st4" d="M570.1,532.7c0,0,.1,0,.2-.1,0,0-.1,0-.2.1Z"/>
        <path class="st4" d="M544.3,539.2c-.5,0-1,.2-1.5.3.5,0,1-.2,1.5-.3Z"/>
        <path class="st4" d="M546.2,538.8c-.6.1-1.3.3-1.9.4.6-.1,1.2-.3,1.9-.4h0Z"/>
        <path class="st4" d="M583.3,528.7c-1.3-1.9-2.7-3.6-4.2-5.1,0,0-.1.1-.2.2-1,.9-2.1,2.1-3.2,3.3-1.1,1.1-2.2,2.3-3.4,3.5,0,0,0,0,0,0,3.7-1.1,6.4-2.1,11-1.9Z"/>
        <path class="st4" d="M508.4,507.6c2.8,3.5,1.9,8,1.9,12.1,0,8.7.2,17.7.3,26.7.6-2,1.2-3.9,1.8-5.8.8-2.7,1.7-5.5,2.4-8.1h0c.9-1.8,3-1.1,4.3-.7.2,0,.4.1.6.2h.4c.7.3,1.3.5,1.9.7.4.2.9.5,1.3.8.5.4,1.1.7,1.5.7,1.7,0,5.3-1.4,7.4-2.2,2-.9,3.9-2,5.6-3.1.8-.5,1.7-1,2.5-1.5v-34.3c0-.7-.5-2.8-.7-3.6-.6-2.1-1.9-4.2-4.3-4.4-3.7-.3-5.1,2.3-7.8,4.1-6.7,4.6-13.1,4.7-20.1,7.4-2.3.9-3.7,2-3.6,4.6,0,3.5,2.5,4.2,4.4,6.5Z"/>
        <path class="st4" d="M550.1,524.4c1.1,0,2,.2,2.9.3,1.8.3,3.3.6,5.2-.6,2-1.2,4-4.4,5.7-7.4-1.5-.1-3-.1-4.6,0-5.6.5-10.9,4-14.5,8.1,0,.1-.2.3-.4.5,1.7-.6,3.5-1,5.6-1Z"/>
        <path class="st4" d="M567.9,534.4c0,0,.1-.1.2-.2,0,0-.1.1-.2.2Z"/>
        <path class="st4" d="M566.8,535.1c0,0,.1,0,.2-.1,0,0-.1,0-.2.1Z"/>
        <path class="st4" d="M565.7,535.7c0,0,.1,0,.2,0,0,0-.1,0-.2,0Z"/>
        <path class="st4" d="M564.6,536.2c0,0,.2,0,.3,0,0,0-.2,0-.3,0Z"/>
      </g>
      <path class="st4" d="M368.7,526.2c6.3,6.5,9.4,18.9,4,26.8-6.7,9.7-23,9.9-27.7-1.8-2.6-6.6,0-13.3.4-19.9,0-1.7.3-4.3-1.8-4.8-6.7-1.7-10,8.7-11.1,13.6-2.9,13.6-2.6,47.6,19.7,42,9.2-2.3,9.2-15.3,16.9-15.6s7.3,11,3.1,16c-11.1,13.2-39,13.9-53.6,6.9-26.6-12.7-27.2-54.1-1.3-67.6,14.1-7.3,39.7-7.6,51.4,4.4Z"/>
      <path class="st5" d="M683.8,555.9c-1.1.1-3.8,1.9-5.1,2.4-2.4.9-4.8,1.3-7.4,1.1-.7,0-2.4-.5-2.9-.4-1.3.3-2,3.1-3.8,1.5-1.5-1.3-3.7-8.2-4.3-10.3-1.7-6.9-2.9-14-3.5-21.1-.5-5.6.3-8.5-3.3-13.3-2.5-3.4-5.6-6.6-8.3-9.8v-5.4c-.1,0-12.9-8.2-12.9-8.2-.5-2.3-.4-4.8-.2-7.1.4-4.2,1.7-8.4,3.6-12.1,1.6-.5,3.1-.8,4.5-1.8,3.4-2.3,6-5.8,9.7-8.1,2.5-1.5,6.6-2.6,6.7-6.1,0-2-2.4-5.8-4.6-5.7-.7,0-1.3.5-2,.5-1,0-1.5-1.3-2.6-.2-2,2.2.4,6-.8,7.6-.6.9-4.9,2-6.1,2.1-1,0-2.2,0-3.2,0,2-5.1,1.6-10.3,1.7-15.7,0-1,.3-1.9.2-3-.2-2.2-1.8-4.2-4.2-4.1-.3-1.8,1.3-4.6,3.1-4.9,1.1-.2,3,0,3.8-1,.6-1,0-1.5,0-2.4,0-.5.2-2,.3-2.5.1-.8.9-1.6.7-2.6,3.3-.5.7-2.3.2-3.9-.4-1.3-.2-2.6-.4-3.9-.6-2.7-1.8-3.2-1.6-6.5,0-1.4.9-2.1-.9-3-2.4-1.2-10.2-1-12.8,0-5.2,2.1-6.5,7.3-6,12.4.4,3.3,3.7,5.8,2.7,9-.8,2.8-4.3,2.9-6.7,3.9-1.7.7-3.3,1.7-4.7,2.9-1.2.9-2.9,2.9-4.1,3.5-.2.1-.5.2-.9.3,1.7,2.1,2.5,4.6,3.2,7,.3,1,.6,2,1,2.9.2.6.5,1.2.8,1.8.8,1.7,1.7,3.7,1.5,5.5-.1,1.7-1,3.1-1.8,4.3-.9,1.5-1.8,2.9-1.7,4.9,0,.4,0,.5.1.6,0,0,0,0,.3,0,1.2-.8,3-1.4,4.8-2,1.9-.7,3.9-1.3,5-2.2.9-.7.9-1.6.9-2.7,0-.9,0-1.9.5-2.8.5-1,2.7-3.1,4-3,2.1.2,3.8,2.2,4.5,3.1,1.8,2.5,2.2,4-.2,6.7-1.7,2-8.7,6.3-12.4,8.6l-1.4.9c-.3.2-.6.4-1,.6-2,1.3-4.7,3-6.3,3.5-.6.2-1.1.2-1.6.2-.9,0-1.1,0-1.4,1.3-.2.7-.2,1.5-.3,2.2.5,0,.9.2,1.4.3-.5.5-1,1.1-1.5,1.7,0,1.3,0,2.7-.4,4.2-.3,1.1-.7,2.1-1.1,3.1-.4.8-.7,1.6-.9,2.4-.4,1.7.5,2.5,1.6,3.6.4.3.7.7,1.1,1.1,5.2,5.9,8.9,12.1,12.8,18.6,0,0,0,0,0,.1.3-.5.5-1,.7-1.6.2-.5.4-.2.7,0,2.1,1.6,4.5,5.8,7.7,5.2.9-.2,1.6-1.9,2.9-1.6,4.1,3,12,4.4,12.6,10.5.5,4.5.2,8.4,1.5,12.9,1.6,5.3,5.2,9.3,7.9,14,1.9,3.3,3.3,6.7,4.6,10.3.1,1.2-.3.9-.8,1.5-1.4,1.6,2.1,4,2.9,5.1,1.9,2.6,1.1,5.8,5.5,5.2,3.7-.5,4.2-3,6.5-4.8,1.5-1.3,4.3-2.3,6.1-3.5,4.3-2.8,7-5.7,7.8-11,.2-1.7-.4-3-2.3-2.8Z"/>
      <path class="st4" d="M405.3,485.1c4.9-.8,6.1,3.2,6.7,7.2.7,25.5-1,51.5,0,76.9.2,4.5.5,9.9,3,13.8s2.8,3,3.2,4.6c1.5,6.3-5.1,6.5-9.6,6.3s-9.7-1.3-15-1-12.4,2.3-16.2,0-2.4-4.1-1.2-6.2c1.7-3.1,5.1-5.6,5.1-9.9,1.2-21,.6-42.3.9-63.4-.2-1.8-.6-3.5-1.5-5.1-1.8-3.1-5.6-3.8-4.8-8.3s2.9-3.2,5-3.9c6.3-2,12.5-2.8,18.2-6.7,1.9-1.3,4.1-4,6.4-4.3Z"/>
    </g>
    <g id="track">
      <path class="st4" d="M314.9,464.7c.4,0,.6,0,.9-.2.8-.5,3.5-3.4,4.3-4.3,2.2-2.5,6.1-7.5,5.4-11s-4.4-4.1-2.2-7.6,9.1-1.4,13-1.2,8.8-1.4,12.7-1,4.5,2.3,4.2,5.2-9.2,6.2-12.4,7.7-8.1,4.6-10.8,7c-4.3,4,1.3,3.5,3.9,4,13,2.6,14.4,24.6,22.1,34.1s5.5,4.7,2.3,7.6-9.4.9-13.1.6-7.7.5-11.7.8-5.5-1.9-7.1-5.6c-3.9-9-6.3-18.9-10.1-28-.2-.7-.8-.8-1.5-.7.6,7.1-1.4,17.2,1.8,23.7s4.1,4,3.8,7.1-1.4,2.7-3,3.1c-4.2,1.3-9.6-.2-13.9-.4s-14.8,2-18.8.3-2-1.3-2.2-2.7c-.4-3.5,1.7-4.2,3.2-6.8s2.3-8.2,2.4-12c.7-16.7-.4-33.9-.2-50.6-.2-4.7-6.9-6-5.1-11s7.7-3.4,10.3-4.2,7.1-2.4,9.9-4.3,4.1-4.5,7.7-3.8,2.4,1.3,3,2.8,1,3.4,1,4.3v47.1Z"/>
      <path class="st4" d="M248.6,438.4c15.5-.9,33.8,5,34.1,23.4.3,18.5-28.7,21.1-28,.3.1-3.5,1.1-7,1.3-10.4s.2-5.2-3.7-4.7-6.9,8.6-7.6,12.2c-2.5,11.9-2.6,39.6,15.9,37.3s8-7.1,11.8-11.6,10.9-2.5,10.5,3.9c-.5,9.5-11.8,14.7-19.8,16.5-22.6,5.1-47.1-4.4-48.5-30.2-1.2-21.9,12.7-35.4,34-36.6Z"/>
      <path class="st4" d="M107.6,452l3.7-5.8c5.4-6.8,16.1-9.8,24.2-6.7,8.6,3.3,4.4,15.9.8,21.6s-7.8-.5-12-3.1c-9.2-5.5-16.1,2.9-16.7,11.7s-.6,21,1.7,25.9,4.2,4.2,3.8,7.3-1.4,2.7-3,3.1c-4.2,1.3-9.4-.2-13.6-.4s-15.4,2-19.2.2-2-2.7-2.1-4.8c-2.8,3.3-7,4.9-11.2,5.3-29.5,3.1-19.1-36.4-21.2-53.7s-5.5-6.3-5.5-9.4.7-2.4,1.7-3.1c2.3-1.6,6.9-2.4,9.7-4,6.5-3.4,8.2-6.8,12.7-11.9,4.7-5.3,7.7-1.6,8.1,4.1s-.4,8.8.1,10,3.7.9,5.1,1c4.4.6,4.6,7.4.5,8.3s-5.3-.9-5.7,2c.5,10.8-.6,22,0,32.8.2,3.7.7,7.8,4,10s2.5.9,2.9,1.9c.7,1.5.2,3.2,0,4.8,3-2.5,3.9-6.6,4.3-10.3.7-7,.8-18.6.3-25.7s-2.3-4.7-4.6-7.9-.7-5.7,2.5-6.8c6.2-2.3,11.9-2.5,17.6-6.5s3.6-4.1,7-3.4,2.4,1.3,3,2.8,1,3.4,1,4.3v6.5Z"/>
      <path class="st4" d="M172.9,438.4c19.5-1.1,35,6.3,36.4,27.5.5,8.2-1.5,22.6,1.8,29.7s3.5,4,3.8,5.9c1.1,7.7-9.9,4.4-14.1,4.2s-3.7,0-5.3,0c-4,.2-10.9,2.8-12.5-2.8s-.2-5.1-2.6-5.3-7.9,4.6-10.1,5.8c-12.4,6.7-28,2.5-29.1-13.1-1.2-15.8,10.4-23.4,23.9-27.4s17.8-3,18.3-9.4-6.9-7.4-11.4-6.1c-7.4,2-9.7,12-16.7,14.5-7.7,2.7-12.7-3.5-9.8-10.8,3.8-9.2,18.6-12.2,27.4-12.7ZM180,467.5c-.9.2-5.4,2.6-6.5,3.2-4.8,2.8-7.1,5.8-6.7,11.6.7,9.6,12.4,10.4,15.4,2.2s1.5-11.4,1.1-14.9-1.3-2.5-3.4-2.1Z"/>
    </g>
    <g>
      <path d="M683.8,555.9c-1.1.1-3.8,1.9-5.1,2.4-2.4.9-4.8,1.3-7.4,1.1-.7,0-2.4-.5-2.9-.4-1.3.3-2,3.1-3.8,1.5-1.5-1.3-3.7-8.2-4.3-10.3-1.7-6.9-2.9-14-3.5-21.1-.5-5.6.3-8.5-3.3-13.3-2.5-3.4-5.6-6.6-8.3-9.8v-5.4c-.1,0-12.9-8.2-12.9-8.2-.5-2.3-.4-4.8-.2-7.1.4-4.2,1.7-8.4,3.6-12.1,1.6-.5,3.1-.8,4.5-1.8,3.4-2.3,6-5.8,9.7-8.1,2.5-1.5,6.6-2.6,6.7-6.1,0-2-2.4-5.8-4.6-5.7-.7,0-1.3.5-2,.5-1,0-1.5-1.3-2.6-.2-2,2.2.4,6-.8,7.6-.6.9-4.9,2-6.1,2.1-1,0-2.2,0-3.2,0,2-5.1,1.6-10.3,1.7-15.7,0-1,.3-1.9.2-3-.2-2.2-1.8-4.2-4.2-4.1-.3-1.8,1.3-4.6,3.1-4.9,1.1-.2,3,0,3.8-1,.6-1,0-1.5,0-2.4,0-.5.2-2,.3-2.5.1-.8.9-1.6.7-2.6,3.3-.5.7-2.3.2-3.9-.4-1.3-.2-2.6-.4-3.9-.6-2.7-1.8-3.2-1.6-6.5,0-1.4.9-2.1-.9-3-2.4-1.2-10.2-1-12.8,0-5.2,2.1-6.5,7.3-6,12.4.4,3.3,3.7,5.8,2.7,9-.8,2.8-4.3,2.9-6.7,3.9-1.7.7-3.3,1.7-4.7,2.9-1.2.9-2.9,2.9-4.1,3.5-.2.1-.5.2-.9.3,1.7,2.1,2.5,4.6,3.2,7,.3,1,.6,2,1,2.9.2.6.5,1.2.8,1.8.8,1.7,1.7,3.7,1.5,5.5-.1,1.7-1,3.1-1.8,4.3-.9,1.5-1.8,2.9-1.7,4.9,0,.4,0,.5.1.6,0,0,0,0,.3,0,1.2-.8,3-1.4,4.8-2,1.9-.7,3.9-1.3,5-2.2.9-.7.9-1.6.9-2.7,0-.9,0-1.9.5-2.8.5-1,2.7-3.1,4-3,2.1.2,3.8,2.2,4.5,3.1,1.8,2.5,2.2,4-.2,6.7-1.7,2-8.7,6.3-12.4,8.6l-1.4.9c-.3.2-.6.4-1,.6-2,1.3-4.7,3-6.3,3.5-.6.2-1.1.2-1.6.2-.9,0-1.1,0-1.4,1.3-.2.7-.2,1.5-.3,2.2.5,0,.9.2,1.4.3-.5.5-1,1.1-1.5,1.7,0,1.3,0,2.7-.4,4.2-.3,1.1-.7,2.1-1.1,3.1-.4.8-.7,1.6-.9,2.4-.4,1.7.5,2.5,1.6,3.6.4.3.7.7,1.1,1.1,5.2,5.9,8.9,12.1,12.8,18.6,0,0,0,0,0,.1.3-.5.5-1,.7-1.6.2-.5.4-.2.7,0,2.1,1.6,4.5,5.8,7.7,5.2.9-.2,1.6-1.9,2.9-1.6,4.1,3,12,4.4,12.6,10.5.5,4.5.2,8.4,1.5,12.9,1.6,5.3,5.2,9.3,7.9,14,1.9,3.3,3.3,6.7,4.6,10.3.1,1.2-.3.9-.8,1.5-1.4,1.6,2.1,4,2.9,5.1,1.9,2.6,1.1,5.8,5.5,5.2,3.7-.5,4.2-3,6.5-4.8,1.5-1.3,4.3-2.3,6.1-3.5,4.3-2.8,7-5.7,7.8-11,.2-1.7-.4-3-2.3-2.8Z"/>
      <path d="M610.6,527.2c-2-1.9-4.3-3.7-6.4-5.5-2.9-2.4-6-4.9-8.6-7.6-.4.4-.8.7-1.2,1.2-1,1.2-1.7,3-1.1,4.6.6,1.6,2.5.4,1.6,3.6-.5,1.9-2.8,6.2-4.9,6.5-2.1.4-4.2-1-6.6-1.1-4.7-.3-7.3.8-11.1,1.9-2.8,2.8-5.8,5.3-8.7,5.8-1.3.2-2.4.2-3.4.1-.7,0-1.3,0-2.1,0-2.7.1-6,.9-9.1,1.7-1.6.4-3.2.8-4.7,1.1-.8.2-1.7.3-2.7.5-.2,0-.4,0-.7.1-5.6.9-12.5,2.1-16.3,5.7-.5.4-.5.5-.4.9,0,.2,0,.5,0,.9-.3,2-3.1,4.2-4.8,4.8-.2,0-.4,0-.6,0-.2,0-.3,0-.4,0-.7.2-1.6,2.9-2.1,4.3-.3.9-.6,1.7-.8,2.2-.6,1.2-1.6,1.9-2.7,1.8-.8,0-1.5-.4-2.2-.9,0,3.9-.1,7.7-.3,11.4-.2,4.2-1,9.2-3.3,12.7-1.9,2.8-2.1,2.7-4,0-3.9-5.7-2.9-13.2-3.1-19.8-.3-10.9-.2-21.9-.5-32.7-.1-3.9,1-13.8-4.7-14.4-4-.4-5.3,2.2-8.2,4.2-6.6,4.5-13.1,4.5-19.9,7.3-2.2.9-3.6,1.8-3.5,4.4,0,3.6,3.1,4.2,4.7,6.7,2.4,3.8,1.9,15.2,1.7,19.9-.3,6.3-1,18.3-10.4,15.5-5.6-1.7-5.6-10.5-5.8-15.2-.5-8.8-.3-17.8-.5-26.7-.1-4,1-15.4-4.7-16.1-4.2-.5-5.5,2.3-8.6,4.4-6.2,4.1-12.4,4.5-19,6.9-3.6,1.3-5.6,3.8-3.3,7.5,2,3.2,4.8,3.5,5.4,8.3,1.5,13.9-5,40.7,10.8,48.1,9.7,4.5,22.4,1,30-5.9,1.1-1,4.3-5.9,5.4-2.6,1.1,3.3.2,7,3.6,9.4,3.6,2.5,11.6,0,16.1.1,4.4.1,11,2.2,15,.8.6-.2,1.8-1,2-1,.2,0,1.6.7,2.2.9,4.8,1.2,10.1-.4,14.9-.7,12.8-.7,25.9,1.8,38.6,1,25.1-1.5,33.7-31,27.7-53.1,2,0,3.9.1,5.9.2,1.8,0,2.7.4,4.5-.3,3.1-1.2,6.8-7.6,9.3-10.3.9-1,1.8-1.8,2.8-2.7-.2-.2-.4-.4-.6-.5ZM549.8,579.5c-8,.1-10.1-12.4-10.3-18.4,0-1.8,0-4.5.3-7.4,0,0,0,0,0,0,.5,1.5,1.3,3.6,2.4,3.7,2.5.3,2.7-3,3.6-4.7.7-1.2,4.6-6.9,5.5-7.4,1.3-.8,3.4-.4,4-.8.9-.6-.6-1.8-.7-2.3-.2-.9.5-1,1.2-1.2-.1,0-.2,0-.4.1,3.4,4.4,4.3,12.4,4.4,16.7.1,6.2-1.5,21.6-10,21.7Z"/>
    </g>
    <g>
      <path d="M569.1,433.5c.2,0,.7-.3.9-.4-.7-.8-1.8-1.2-1.7-2.4,3,3.1,7.6,0,8.1-3.6s-.6-3.2.8-5.2,2.9-2.1,4.9-2.9,2.8-1.8,4.5-1.5,1.8.9,2.7.4.7-2,1-2.8c1.6-5.3,8.9-7.1,13.8-6.4s4.3,1,5.1,3,1.6,5.2,1.7,6.4-.4,2.1.5,3.2,1.6,1,1.8,2.1-.7,2.2-.9,3.2-.1,2.7-.4,3.9c-.6,2.2-2.4,1.5-4.1,2s-3.3,2.7-3.4,4.4,1,1.5,1.9,2.2c3.3,2.9,3.8,7.1,5.2,11s2.5,4.9,2.3,7.1c-.3,3.6-3.8,5.3-3.5,9.3s.2,1.2,1.1,1c2.5-1.6,7.7-2.5,9.9-4.2s.6-3.7,1.6-5.7,2.5-2.8,3.6-2.7c1.7.1,3.2,1.6,4.1,2.9,1.8,2.5,2,3.7-.1,6.1-1.9,2.2-10.7,7.5-13.7,9.4s-5.3,3.5-7.2,4.1-2.8-.7-3.3,1.8,0,5.4-.8,8.3c-.5,2-1.6,3.8-2,5.5-.6,2.5,1.4,3.5,2.8,5.1,6.1,6.9,10.2,14.4,15,22.2,1.7,2.7,3.6,4.6,3.9,8.1.5,4.9.7,7.8,2.1,12.6,1.4,4.9,3.2,11.3,5.1,15.9s3.9,7.1,6,7.4,3-1.9,4-1.8,1.7,2.6,3.3,2.8,2.8-.1,4.1-.4,4.2-1.6,5.2-1.6c1.4,0,1.7,1.9,1.5,3-.7,3.1-7.3,7-10.2,8.1s-2.6.6-3.8,1c-2.7,1-5.6,4.1-8.8,4-2.3,0-2.2-2.1-2.8-3.7s-1.8-2.8-1.6-4.7.8-1.6.4-2.5c-2.1-3.5-3.8-7.2-5.8-10.8-3.8-6.5-7.1-10.4-8.8-18.1s.2-8.7-4.2-12.8c-4.9-4.6-10.6-8.5-15.2-13.3s-2.9-3.7-3.7-3.8-.8.3-1.1.7c-1.3,1.4-2.5,3.4-3.8,5-2.7,3.1-5.6,5.4-8.5,8.1s-9.9,11.6-15,12.5-3.5,0-5.4,0c-4.2.2-9.6,1.9-13.9,2.7s-15.2,1.9-19.9,6.4-.4,1-.6,2c-.2,1.7-2.8,3.9-4.4,4.4s-.7,0-1,.1c-1.4.4-2.5,5.4-3.2,6.8-1.3,2.6-4.2,1.6-5.3-.6s-.7-3.7-.2-5.7c1.4-6.5,4-13.1,5.7-19.5.8-1.6,3-.5,4.4-.2s1.6.4,2.3.7c1,.4,2.1,1.6,3.1,1.6,1.9,0,5.7-1.5,7.5-2.3,6.2-2.7,10.3-7.5,17.6-7.5s5.3,1.5,8.3-.3c3.6-2.2,6.8-9.7,9.2-13.4s7.8-8.9,8.1-13.4c.1-1.9-.5-3.4-.1-5.3s.9-2.3,1.3-3.5l-.4-.3c-3.9.5-5.7.4-6.9-3.5-2.7-8.6-5.4-17.3-8.4-25.8-.3-2,0-3.5,1.4-4.9,2.6-2.5,8.8-6.7,12-8.4s3.6-1.5,5.3-2.3,3.6-2.8,5.4-4.1c2.9-2.1,7.1-4,9.4-6.7,1.9-2.2,0-2.1-1.5-3.3-2.8-2.2-2.3-4.2-2.8-7.2s-1.9-1.6-2.6-.2c-2,3.9.8,7.6-1.7,11.7s-2.7,2.4-4,3.8-2.1,3.2-3.2,4.6c-2.4,2.9-5.5,3.8-9.2,3.6s-6.9-.8-7.4-2.1c0-.4.2-.2.4-.2,1.5-.1,3.3.3,5,.2s1.9-.4,2.7-.7c0-.3-.3-.1-.5,0-1.5.2-2.9.5-4.5,0,.8-1,2.6-.6,3.5-1.5-2.2,0-4.5,0-6.7,0s-2.6.5-2.7,0,.2-.4.4-.4l8.1-2.8c0-.3-.4-.2-.6-.2-1.5,0-2.9.2-4.4.3,1.8-1.5,4.2-2,6.3-3,0-.2-.2-.3-.4-.3-1.5-.7-3.7-.6-4.9-1.8,1.6-.2,3.6.2,5.1,0ZM587.1,451.3c-.1-.1-.4-.2-.5-.2-.6,0-4.5,2.7-5.5,3.2s-1.9,1-2.9,1.4c-2.7,1.2-7.2,1.6-7.7,5-.6,4.1,1,14.1,3.5,17.5,1.4,1.9,3.3,2.1,5,3.5s1.5,1.6,1.9,1.6l.6-.2c2.4-3.4,7.4-7.1,7.9-11.3.5-4,.3-10.9-.7-14.8-.6-.8-1.2-5.2-1.7-5.6Z"/>
      <path class="st1" d="M633.9,579.9s0,0-.1,0c-2.2,0-2.6-1.7-2.9-3,0-.4-.2-.7-.3-1.1-.2-.5-.4-.9-.6-1.3-.6-1-1.1-2.1-1-3.5,0-.4.2-.7.3-1,.2-.5.3-.9.1-1.2-1.1-1.8-2-3.7-3-5.5-.9-1.7-1.8-3.5-2.8-5.2-.8-1.4-1.6-2.6-2.3-3.8-2.8-4.4-5.1-8.2-6.5-14.4-.4-1.6-.5-3.1-.6-4.4-.3-3.1-.5-5.4-3.5-8.2-2-1.9-4.3-3.7-6.4-5.5-3-2.5-6.1-5-8.8-7.8-.2-.2-.5-.6-.8-1-.6-.8-2.1-2.6-2.5-2.7-.2,0-.3,0-.6.4v.2c-.8.7-1.4,1.6-2.1,2.6-.6.8-1.2,1.7-1.8,2.4-1.9,2.2-3.8,3.9-5.8,5.7-.9.8-1.8,1.6-2.7,2.5-1,.9-2.1,2.1-3.2,3.3-3.6,3.8-8,8.6-12,9.3-1.3.2-2.4.2-3.4.1-.7,0-1.3,0-2.1,0-2.7.1-6,.9-9.1,1.7-1.6.4-3.2.8-4.7,1.1-1,.2-2.2.4-3.3.6-5.6.9-12.5,2.1-16.3,5.7-.5.4-.5.5-.4.9,0,.2,0,.5,0,.9-.3,2-3.1,4.2-4.8,4.8-.2,0-.4,0-.6,0-.2,0-.3,0-.4,0-.7.2-1.6,2.9-2.1,4.3-.3.9-.6,1.7-.8,2.2-.6,1.2-1.6,1.9-2.7,1.8-1.3,0-2.7-1-3.4-2.5-1-2.1-.7-4.1-.3-6,.8-3.8,2.1-7.7,3.2-11.4.8-2.7,1.7-5.5,2.4-8.1h0c.9-1.8,3-1.1,4.3-.7.2,0,.4.1.6.2h.4c.7.3,1.3.5,1.9.7.4.2.9.5,1.3.8.5.4,1.1.7,1.5.7,1.7,0,5.3-1.4,7.4-2.2,2-.9,3.9-2,5.6-3.1,3.7-2.3,7.2-4.4,12.2-4.4,1.1,0,2,.2,2.9.3,1.8.3,3.3.6,5.2-.6,2.5-1.5,4.9-5.9,6.8-9.4.8-1.4,1.5-2.8,2.2-3.8.8-1.2,1.7-2.4,2.8-3.7,2.4-3,5.1-6.4,5.3-9.5,0-.8,0-1.5-.1-2.2-.1-1-.2-2,0-3.1.2-.9.5-1.6.8-2.4.1-.3.2-.5.3-.8-3.9.5-5.9.2-7.2-3.9-.7-2.3-1.4-4.5-2.2-6.8-2-6.2-4-12.7-6.2-18.9-.4-2.4,0-4,1.5-5.4,2.3-2.2,7.5-5.8,11.1-7.9-1.1.2-2.3.3-3.7.2,0,0-7.1-.6-7.8-2.4h0c0-.2,0-.5.1-.7.2-.2.5-.2.6-.2.7,0,1.5,0,2.2,0l.3-.4c.3-.3.6-.5,1-.7-.1,0-.2,0-.4,0-1.1,0-2.3,0-3.5,0,0,0-.3,0-.5,0-1.2.2-2.6.4-2.8-.5,0-.2,0-.7.7-1l5.5-1.9c-.3,0-.6,0-.8,0-.4,0-.9.1-1.4.1h-1.5c0,.1,1.2-.9,1.2-.9,1.2-1.1,2.7-1.6,4.2-2.1.5-.2,1-.3,1.4-.5-.4-.1-.9-.2-1.4-.4-1.2-.3-2.4-.5-3.2-1.4l-.8-.7h1.1c.8-.2,1.7-.1,2.5,0,.9,0,1.8,0,2.5,0,0,0,0,0,.1,0,0,0,0,0-.1,0-.6-.5-1.3-1.1-1.2-2.2v-1.1c0,0,.9.8.9.8,1,1,2.3,1.4,3.7.9,1.8-.6,3.3-2.4,3.6-4.3,0-.6,0-1.2,0-1.7,0-1.1-.2-2.2.9-3.7,1.2-1.6,2.4-2,3.8-2.6.4-.2.8-.3,1.3-.5.4-.2.8-.4,1.2-.6,1.1-.6,2.2-1.2,3.6-1,.4,0,.7.2,1.1.3.6.2.9.4,1.3.2.3-.2.5-1,.6-1.6,0-.3.1-.7.2-.9,1.7-5.8,9.6-7.5,14.4-6.8,1.1.2,4.5.7,5.5,3.3.5,1.2,1.6,5.3,1.8,6.5,0,.5,0,.9,0,1.3,0,.7,0,1.1.4,1.6.2.2.4.4.6.5.5.4,1.2.9,1.3,1.8,0,.7-.2,1.5-.5,2.2-.2.4-.3.8-.4,1.2-.1.6-.2,1.3-.2,1.9,0,.7,0,1.4-.2,2-.5,1.9-1.8,2-3,2.1-.5,0-1,0-1.4.2-1.5.5-3,2.4-3,4,0,.7.2.9.9,1.2.3.2.6.3.9.6,2.6,2.2,3.5,5.3,4.4,8.3.3,1,.6,2,1,2.9.2.6.5,1.2.8,1.8.8,1.7,1.7,3.7,1.5,5.5-.1,1.7-1,3.1-1.8,4.3-.9,1.5-1.8,2.9-1.7,4.9,0,.4,0,.5.1.6,0,0,0,0,.3,0,1.2-.8,3-1.4,4.8-2,1.9-.7,3.9-1.3,5-2.2.9-.7.9-1.6.9-2.7,0-.9,0-1.9.5-2.8.5-1,2.7-3.1,4-3,2.1.2,3.8,2.2,4.5,3.1,1.8,2.5,2.2,4-.2,6.7-1.7,2-8.7,6.3-12.4,8.6l-1.4.9c-.3.2-.6.4-1,.6-2,1.3-4.7,3-6.3,3.5-.6.2-1.1.2-1.6.2-.9,0-1.1,0-1.4,1.3-.3,1.3-.3,2.5-.3,3.8,0,1.4,0,2.9-.4,4.6-.3,1.1-.7,2.1-1.1,3.1-.4.8-.7,1.6-.9,2.4-.4,1.7.5,2.5,1.6,3.6.4.3.7.7,1.1,1.1,5.2,5.9,8.9,12.1,12.8,18.6.7,1.2,1.4,2.4,2.2,3.6.4.6.8,1.2,1.2,1.8,1.3,1.9,2.5,3.7,2.8,6.5.4,4.9.7,7.8,2.1,12.6l.2.8c1.4,4.8,3.1,10.7,4.9,15.1.8,2.1,3.9,6.9,5.6,7.1.8,0,1.5-.5,2.2-1,.6-.5,1.2-.9,1.8-.8.3,0,.6.3,1,.9.6.7,1.5,1.8,2.4,1.9,1.2.2,2.6,0,3.9-.4.6-.1,1.4-.4,2.3-.8,1.2-.4,2.4-.9,3-.9h0c.6,0,1.1.2,1.4.7.6.8.7,2,.5,2.9-.7,3.5-7.9,7.5-10.5,8.4-.6.2-1.3.4-1.9.5-.7.1-1.3.3-1.9.5-.9.4-1.9,1-2.9,1.6-1.9,1.2-3.8,2.4-5.9,2.4ZM591.9,509.2c0,0,.1,0,.2,0,.7,0,1.5,1,3.2,3,.3.4.6.7.8.9,2.6,2.8,5.7,5.3,8.7,7.8,2.2,1.8,4.4,3.6,6.5,5.5,3.3,3.1,3.5,5.8,3.8,8.9.1,1.3.2,2.7.6,4.2,1.3,6,3.5,9.6,6.4,14.1.7,1.2,1.5,2.5,2.3,3.8,1,1.7,2,3.5,2.9,5.3.9,1.8,1.9,3.7,3,5.5.4.8.1,1.5,0,2.1-.1.3-.2.5-.2.8-.1,1.1.4,2,.9,3,.2.5.5.9.7,1.5.1.4.2.8.3,1.2.4,1.4.6,2.2,2,2.2,1.9,0,3.7-1.1,5.5-2.3,1.1-.7,2.1-1.3,3.1-1.7.6-.2,1.3-.4,2-.5.6-.1,1.2-.3,1.8-.5,3.1-1.1,9.3-4.9,9.9-7.7.1-.6,0-1.6-.3-2.1-.2-.2-.4-.3-.7-.3h0c-.5,0-1.6.4-2.7.8-.9.3-1.8.7-2.4.8-1.4.3-2.9.6-4.3.4-1.3-.2-2.3-1.5-3-2.3-.1-.2-.3-.4-.4-.5-.2,0-.7.4-1,.6-.8.6-1.7,1.3-2.9,1.2-2.6-.3-5.8-6.2-6.4-7.7-1.8-4.4-3.5-10.4-4.9-15.2l-.2-.8c-1.4-4.9-1.7-7.8-2.1-12.7-.2-2.5-1.3-4.2-2.6-6-.4-.6-.8-1.2-1.2-1.8-.7-1.2-1.5-2.4-2.2-3.6-3.9-6.5-7.6-12.7-12.7-18.5-.3-.3-.7-.7-1-1-1.2-1.1-2.5-2.3-1.9-4.6.2-.8.6-1.7.9-2.5.4-.9.8-1.9,1.1-2.9.4-1.5.4-3,.4-4.4,0-1.3,0-2.6.3-4,.4-2,1.3-2.1,2.4-2.1.4,0,.8,0,1.3-.1,1.5-.5,4.2-2.2,6.1-3.4.4-.2.7-.5,1-.7l1.4-.9c3.7-2.3,10.5-6.5,12.2-8.4,1.9-2.2,1.8-3.2.1-5.5-.4-.6-2-2.5-3.7-2.7-.8,0-2.6,1.5-3.1,2.4-.4.8-.4,1.6-.4,2.4,0,1.3,0,2.5-1.3,3.5-1.2.9-3.3,1.6-5.3,2.3-1.7.6-3.5,1.2-4.7,1.9h-.2c-.4.2-.9.2-1.2,0-.4-.3-.5-.8-.5-1.3-.2-2.3.8-3.9,1.8-5.5.8-1.2,1.5-2.4,1.7-3.9.1-1.5-.7-3.3-1.5-5-.3-.7-.6-1.3-.8-1.9-.4-1-.7-2-1-3-.9-3-1.7-5.8-4.1-7.8-.2-.2-.5-.3-.7-.5-.7-.4-1.4-.8-1.4-2.2,0-2,1.8-4.3,3.7-4.9.5-.2,1.1-.2,1.6-.3,1.3-.1,1.9-.2,2.2-1.4.1-.6.2-1.2.2-1.8,0-.7,0-1.4.2-2,0-.4.3-.9.5-1.3.3-.6.5-1.3.5-1.7,0-.5-.4-.8-.9-1.1-.3-.2-.6-.4-.8-.7-.7-.9-.6-1.6-.6-2.3,0-.3,0-.7,0-1.1-.1-1.1-1.3-5.1-1.7-6.2-.6-1.4-2.1-2.3-4.7-2.7-4.4-.7-11.7.8-13.3,6.1,0,.2-.1.5-.2.8-.1.9-.3,1.9-1.1,2.3-.8.5-1.6.1-2.2-.1-.3-.1-.6-.2-.8-.3-1.1-.2-2,.3-3,.9-.4.2-.8.4-1.2.6-.5.2-.9.4-1.3.5-1.3.5-2.4.9-3.3,2.2-.8,1.1-.8,2-.7,3,0,.6,0,1.2,0,1.9-.3,2.2-2.1,4.4-4.3,5.1-1,.3-1.9.3-2.8,0,.2.2.4.3.5.5l.5.5-.7.2c0,0-.2,0-.3.2-.3.2-.5.3-.7.3h0c-.8.1-1.8,0-2.7,0-.1,0-.2,0-.3,0,.3,0,.7.2,1.1.3.7.2,1.4.3,2,.6.2,0,.7.3.7.8v.3s-.3.1-.3.1c-.8.4-1.6.7-2.4,1-.7.3-1.5.5-2.1.8.8,0,1.5-.1,2.4-.1,0,0,0,0,.1,0,.2,0,.5,0,.8.2.1.1.2.3.2.5v.3s-7.5,2.6-7.5,2.6c.3,0,.5,0,.7,0,.3,0,.5,0,.6,0,1.2,0,2.4,0,3.5,0,1.1,0,2.2,0,3.2,0h1.2s-.8.8-.8.8c-.5.5-1.2.7-1.9.8.6,0,1.3-.1,2-.2h.5c.2-.1.6-.2.8,0,0,0,.2.3.2.6v.3s-.4,0-.4,0c-.2,0-.5.1-.7.2-.7.2-1.4.4-2.1.5-.9,0-1.8,0-2.7,0-.6,0-1.2,0-1.8-.1,1.3.6,4.8,1.2,6.5,1.3,4,.2,6.7-.8,8.8-3.4.5-.6.9-1.3,1.4-2,.6-.9,1.2-1.8,1.9-2.6.5-.6,1.1-1,1.7-1.4.9-.6,1.7-1.3,2.3-2.3,1.2-2,1.1-3.9.9-5.9-.1-1.9-.3-3.8.8-5.8.5-.9,1.4-1.5,2.2-1.4.7.1,1.2.8,1.4,1.7,0,.6.1,1.2.2,1.7.2,2.1.3,3.5,2.4,5.1.3.3.7.5,1.1.7.7.4,1.3.7,1.4,1.4,0,.6-.2,1.2-.9,2-1.6,1.9-4,3.3-6.3,4.7-1.2.7-2.2,1.3-3.2,2-.7.5-1.3,1-2,1.6-1.1.9-2.2,1.9-3.5,2.5-.8.4-1.6.7-2.4,1-1,.4-2,.8-3,1.3-3.4,1.8-9.5,5.9-11.9,8.3-1.3,1.2-1.6,2.4-1.3,4.5,2.2,6.2,4.2,12.7,6.2,18.9.7,2.3,1.4,4.6,2.2,6.8,1.1,3.5,2.6,3.7,6.4,3.2h.2s.9.5.9.5v.4c-.3.4-.5.8-.6,1.2-.3.7-.6,1.4-.8,2.2-.2,1,0,1.9,0,2.8,0,.8.2,1.5.1,2.4-.2,3.3-3,6.9-5.5,10-1,1.3-2,2.5-2.7,3.6-.7,1-1.4,2.3-2.2,3.8-2.1,3.8-4.5,8.1-7.2,9.8-2.2,1.3-4,1-5.8.7-.9-.2-1.8-.3-2.8-.3-4.7,0-8.1,2.1-11.6,4.3-1.8,1.1-3.7,2.3-5.8,3.2-1.9.8-5.8,2.2-7.7,2.3-.8,0-1.5-.5-2.2-.9-.4-.3-.8-.5-1.1-.7-.5-.2-1.2-.4-1.8-.6h-.4c-.2-.2-.4-.2-.7-.3-1.5-.5-2.7-.8-3.1,0-.7,2.7-1.6,5.4-2.4,8.1-1.2,3.7-2.4,7.6-3.2,11.3-.4,1.8-.7,3.5.2,5.3.5,1.1,1.5,1.9,2.5,1.9,0,0,0,0,0,0,.7,0,1.4-.4,1.8-1.3.2-.4.5-1.2.8-2,.9-2.7,1.6-4.6,2.7-5,.3,0,.5,0,.7,0,.1,0,.3,0,.3,0,1.6-.5,3.9-2.5,4.1-4,0-.3,0-.5,0-.7,0-.6,0-.9.7-1.6,4-3.8,11.1-5,16.8-5.9,1.2-.2,2.3-.4,3.3-.6,1.4-.3,3-.7,4.6-1,3.2-.8,6.5-1.6,9.3-1.7.8,0,1.5,0,2.2,0,1,0,2,.1,3.2,0,3.7-.7,8-5.3,11.5-9,1.2-1.3,2.3-2.4,3.3-3.4.9-.9,1.8-1.7,2.7-2.5,2-1.8,3.9-3.5,5.7-5.6.6-.7,1.2-1.5,1.8-2.3.7-.9,1.4-1.9,2.1-2.7h.1c.3-.4.6-.8,1.3-.8ZM589.5,421.9c-.3,0-.7.2-1,.8-.9,1.7-.8,3.4-.6,5.3.2,2.1.3,4.2-1.1,6.5-.7,1.2-1.6,1.9-2.5,2.5-.6.4-1.1.8-1.6,1.3-.7.7-1.2,1.6-1.8,2.5-.4.7-.9,1.4-1.4,2.1-.4.5-.9,1-1.4,1.4.6-.3,1.3-.5,1.9-.8,1.1-.6,2.2-1.5,3.3-2.4.7-.6,1.3-1.2,2-1.7,1-.7,2.1-1.4,3.3-2.1,2.2-1.4,4.6-2.8,6.1-4.5.7-.8.7-1.1.7-1.2,0-.2-.5-.4-.9-.7-.4-.2-.8-.4-1.2-.7-2.4-1.9-2.6-3.7-2.8-5.8,0-.5,0-1.1-.2-1.7,0-.5-.3-.8-.6-.8,0,0,0,0,0,0ZM581,483.7h-.1c-.4,0-.7-.4-1.5-1.2-.2-.2-.5-.5-.6-.6-.6-.5-1.3-.8-1.9-1.1-1.1-.6-2.2-1.1-3.2-2.4-2.6-3.5-4.1-13.7-3.6-17.8.4-2.8,3.3-3.8,5.8-4.6.8-.2,1.5-.5,2.1-.8,1-.4,2.1-1,2.8-1.4.3-.2.9-.6,1.7-1,2.6-1.6,3.6-2.2,4-2.2.3,0,.7.1.9.3h0s0,0,0,0h0c.3.3.5.9.9,2.7.3,1.1.6,2.6.9,3v.2c1.1,4.1,1.2,11,.8,15-.4,3.1-2.9,5.8-5.2,8.2-1.1,1.2-2.1,2.2-2.8,3.3h0c0,.1-.8.5-.8.5ZM586.6,451.6c-.4,0-2.4,1.4-3.5,2.1-.8.5-1.4.9-1.7,1-.8.4-1.9,1-2.9,1.5-.7.3-1.4.5-2.2.8-2.4.8-4.8,1.6-5.2,3.8-.5,3.9.9,13.8,3.4,17.1.8,1.1,1.8,1.6,2.8,2.1.7.3,1.4.7,2.1,1.2.2.1.4.4.7.7.2.2.6.7.9.8h.2c.8-1.2,1.8-2.3,2.8-3.4,2.3-2.4,4.6-5,4.9-7.7.5-3.9.3-10.6-.6-14.5-.3-.5-.6-1.6-1-3.2-.2-.8-.4-1.9-.6-2.2,0,0-.1,0-.2,0Z"/>
    </g>
    <text class="st2" transform="translate(108.5 427.9)"><tspan x="0" y="0">S W M O</tspan></text>
    <g id="club1" data-name="club">
      <path class="st5" d="M716.7,222.8c-1.1.1-3.8,1.9-5.1,2.4-2.4.9-4.8,1.3-7.4,1.1-.7,0-2.4-.5-2.9-.4-1.3.3-2,3.1-3.8,1.5-1.5-1.3-3.7-8.2-4.3-10.3-1.7-6.9-2.9-14-3.5-21.1-.5-5.6.3-8.5-3.3-13.3-2.5-3.4-5.6-6.6-8.3-9.8v-5.4c-.1,0-12.9-8.2-12.9-8.2-.5-2.3-.4-4.8-.2-7.1.4-4.2,1.7-8.4,3.6-12.1,1.6-.5,3.1-.8,4.5-1.8,3.4-2.3,6-5.8,9.7-8.1,2.5-1.5,6.6-2.6,6.7-6.1,0-2-2.4-5.8-4.6-5.7-.7,0-1.3.5-2,.5-1,0-1.5-1.3-2.6-.2-2,2.2.4,6-.8,7.6-.6.9-4.9,2-6.1,2.1-1,0-2.2,0-3.2,0,2-5.1,1.6-10.3,1.7-15.7,0-1,.3-1.9.2-3-.2-2.2-1.8-4.2-4.2-4.1-.3-1.8,1.3-4.6,3.1-4.9,1.1-.2,3,0,3.8-1,.6-1,0-1.5,0-2.4,0-.5.2-2,.3-2.5.1-.8.9-1.6.7-2.6,3.3-.5.7-2.3.2-3.9-.4-1.3-.2-2.6-.4-3.9-.6-2.7-1.8-3.2-1.6-6.5,0-1.4.9-2.1-.9-3-2.4-1.2-10.2-1-12.8,0-5.2,2.1-6.5,7.3-6,12.4.4,3.3,3.7,5.8,2.7,9-.8,2.8-4.3,2.9-6.7,3.9-1.7.7-3.3,1.7-4.7,2.9-1.2.9-2.9,2.9-4.1,3.5-.2.1-.5.2-.9.3,1.7,2.1,2.5,4.6,3.2,7,.3,1,.6,2,1,2.9.2.6.5,1.2.8,1.8.8,1.7,1.7,3.7,1.5,5.5-.1,1.7-1,3.1-1.8,4.3-.9,1.5-1.8,2.9-1.7,4.9,0,.4,0,.5.1.6,0,0,0,0,.3,0,1.2-.8,3-1.4,4.8-2,1.9-.7,3.9-1.3,5-2.2.9-.7.9-1.6.9-2.7,0-.9,0-1.9.5-2.8.5-1,2.7-3.1,4-3,2.1.2,3.8,2.2,4.5,3.1,1.8,2.5,2.2,4-.2,6.7-1.7,2-8.7,6.3-12.4,8.6l-1.4.9c-.3.2-.6.4-1,.6-2,1.3-4.7,3-6.3,3.5-.6.2-1.1.2-1.6.2-.9,0-1.1,0-1.4,1.3-.2.7-.2,1.5-.3,2.2.5,0,.9.2,1.4.3-.5.5-1,1.1-1.5,1.7,0,1.3,0,2.7-.4,4.2-.3,1.1-.7,2.1-1.1,3.1-.4.8-.7,1.6-.9,2.4-.4,1.7.5,2.5,1.6,3.6.4.3.7.7,1.1,1.1,5.2,5.9,8.9,12.1,12.8,18.6,0,0,0,0,0,.1.3-.5.5-1,.7-1.6.2-.5.4-.2.7,0,2.1,1.6,4.5,5.8,7.7,5.2.9-.2,1.6-1.9,2.9-1.6,4.1,3,12,4.4,12.6,10.5.5,4.5.2,8.4,1.5,12.9,1.6,5.3,5.2,9.3,7.9,14,1.9,3.3,3.3,6.7,4.6,10.3.1,1.2-.3.9-.8,1.5-1.4,1.6,2.1,4,2.9,5.1,1.9,2.6,1.1,5.8,5.5,5.2,3.7-.5,4.2-3,6.5-4.8,1.5-1.3,4.3-2.3,6.1-3.5,4.3-2.8,7-5.7,7.8-11,.2-1.7-.4-3-2.3-2.8Z"/>
    </g>
  </g>
  <g id="One_Color_Black" class="st5">
    <path class="st4" d="M298.1,539.2H40.8v11.2h254.7c.4-3.9,1.3-7.7,2.7-11.2Z"/>
    <path class="st4" d="M304.2,581.7H40.8v10.4h276.4c-5.1-2.5-9.5-6-13-10.4Z"/>
    <path class="st4" d="M295.5,560.3H40.8v10.7h257.3c-1.3-3.4-2.2-6.9-2.6-10.7Z"/>
    <path class="st4" d="M315.9,519.1c.5-.2,1-.5,1.5-.7H40.8v10.4h263.4c3.2-4,7.2-7.3,11.8-9.7Z"/>
    <g id="club2" data-name="club">
      <g>
        <path class="st4" d="M554.3,537c.6-.1,1.2-.2,1.8-.3-.6,0-1.2.2-1.8.3Z"/>
        <path class="st4" d="M552.2,537.4c.6-.1,1.2-.3,1.8-.4-.6.1-1.2.2-1.8.4Z"/>
        <path class="st4" d="M551.9,537.5c-.6.1-1.3.3-1.9.4h0c.6-.2,1.3-.3,1.9-.4Z"/>
        <path class="st4" d="M556.3,536.6c.6,0,1.2-.1,1.8-.2-.6,0-1.2,0-1.8.2Z"/>
        <path class="st4" d="M540.8,538.8c1.2-.2,2.3-.4,3.3-.6,1.4-.3,3-.7,4.6-1,3.2-.8,6.5-1.6,9.3-1.7.8,0,1.5,0,2.2,0,1,0,2,.1,3.2,0,3.7-.7,8-5.3,11.5-9,1.2-1.3,2.3-2.4,3.3-3.4,0,0,0,0,.1-.1-3.6-3.3-8.1-5.5-13.3-6.1-1.9,3.4-4,6.8-6.3,8.2-2.2,1.3-4,1-5.8.7-.9-.2-1.8-.3-2.8-.3-2.6,0-4.7.6-6.8,1.6-.9,1.3-2,2.7-2.3,2.7-.2,0-.6-.2-.6-.4v-.8c-.7.4-1.3.8-2,1.2-1.8,1.1-3.7,2.3-5.8,3.2-1.9.8-5.8,2.2-7.7,2.3-.8,0-1.5-.5-2.2-.9-.4-.3-.8-.5-1.1-.7-.5-.2-1.2-.4-1.8-.6h-.4c-.2-.2-.4-.2-.7-.3-1.5-.5-2.7-.8-3.1,0-.7,2.7-1.6,5.4-2.4,8.1-1,3-1.9,6.1-2.7,9.2,0,2.7,0,5.4,0,8,.6.8,1.4,1.3,2.2,1.3,0,0,0,0,0,0,.7,0,1.4-.4,1.8-1.3.2-.4.5-1.2.8-2,.9-2.7,1.6-4.6,2.7-5,.3,0,.5,0,.7,0,.1,0,.3,0,.3,0,1.6-.5,3.9-2.5,4.1-4,0-.3,0-.5,0-.7,0-.6,0-.9.7-1.6,4-3.8,11.1-5,16.8-5.9Z"/>
        <path class="st4" d="M570.1,532.7c0,0,.1,0,.2-.1,0,0-.1,0-.2.1Z"/>
        <path class="st4" d="M544.3,539.2c-.5,0-1,.2-1.5.3.5,0,1-.2,1.5-.3Z"/>
        <path class="st4" d="M546.2,538.8c-.6.1-1.3.3-1.9.4.6-.1,1.2-.3,1.9-.4h0Z"/>
        <path class="st4" d="M583.3,528.7c-1.3-1.9-2.7-3.6-4.2-5.1,0,0-.1.1-.2.2-1,.9-2.1,2.1-3.2,3.3-1.1,1.1-2.2,2.3-3.4,3.5,0,0,0,0,0,0,3.7-1.1,6.4-2.1,11-1.9Z"/>
        <path class="st4" d="M508.4,507.6c2.8,3.5,1.9,8,1.9,12.1,0,8.7.2,17.7.3,26.7.6-2,1.2-3.9,1.8-5.8.8-2.7,1.7-5.5,2.4-8.1h0c.9-1.8,3-1.1,4.3-.7.2,0,.4.1.6.2h.4c.7.3,1.3.5,1.9.7.4.2.9.5,1.3.8.5.4,1.1.7,1.5.7,1.7,0,5.3-1.4,7.4-2.2,2-.9,3.9-2,5.6-3.1.8-.5,1.7-1,2.5-1.5v-34.3c0-.7-.5-2.8-.7-3.6-.6-2.1-1.9-4.2-4.3-4.4-3.7-.3-5.1,2.3-7.8,4.1-6.7,4.6-13.1,4.7-20.1,7.4-2.3.9-3.7,2-3.6,4.6,0,3.5,2.5,4.2,4.4,6.5Z"/>
        <path class="st4" d="M550.1,524.4c1.1,0,2,.2,2.9.3,1.8.3,3.3.6,5.2-.6,2-1.2,4-4.4,5.7-7.4-1.5-.1-3-.1-4.6,0-5.6.5-10.9,4-14.5,8.1,0,.1-.2.3-.4.5,1.7-.6,3.5-1,5.6-1Z"/>
        <path class="st4" d="M567.9,534.4c0,0,.1-.1.2-.2,0,0-.1.1-.2.2Z"/>
        <path class="st4" d="M566.8,535.1c0,0,.1,0,.2-.1,0,0-.1,0-.2.1Z"/>
        <path class="st4" d="M565.7,535.7c0,0,.1,0,.2,0,0,0-.1,0-.2,0Z"/>
        <path class="st4" d="M564.6,536.2c0,0,.2,0,.3,0,0,0-.2,0-.3,0Z"/>
      </g>
      <path class="st4" d="M368.7,526.2c6.3,6.5,9.4,18.9,4,26.8-6.7,9.7-23,9.9-27.7-1.8-2.6-6.6,0-13.3.4-19.9,0-1.7.3-4.3-1.8-4.8-6.7-1.7-10,8.7-11.1,13.6-2.9,13.6-2.6,47.6,19.7,42,9.2-2.3,9.2-15.3,16.9-15.6s7.3,11,3.1,16c-11.1,13.2-39,13.9-53.6,6.9-26.6-12.7-27.2-54.1-1.3-67.6,14.1-7.3,39.7-7.6,51.4,4.4Z"/>
      <path class="st5" d="M683.8,555.9c-1.1.1-3.8,1.9-5.1,2.4-2.4.9-4.8,1.3-7.4,1.1-.7,0-2.4-.5-2.9-.4-1.3.3-2,3.1-3.8,1.5-1.5-1.3-3.7-8.2-4.3-10.3-1.7-6.9-2.9-14-3.5-21.1-.5-5.6.3-8.5-3.3-13.3-2.5-3.4-5.6-6.6-8.3-9.8v-5.4c-.1,0-12.9-8.2-12.9-8.2-.5-2.3-.4-4.8-.2-7.1.4-4.2,1.7-8.4,3.6-12.1,1.6-.5,3.1-.8,4.5-1.8,3.4-2.3,6-5.8,9.7-8.1,2.5-1.5,6.6-2.6,6.7-6.1,0-2-2.4-5.8-4.6-5.7-.7,0-1.3.5-2,.5-1,0-1.5-1.3-2.6-.2-2,2.2.4,6-.8,7.6-.6.9-4.9,2-6.1,2.1-1,0-2.2,0-3.2,0,2-5.1,1.6-10.3,1.7-15.7,0-1,.3-1.9.2-3-.2-2.2-1.8-4.2-4.2-4.1-.3-1.8,1.3-4.6,3.1-4.9,1.1-.2,3,0,3.8-1,.6-1,0-1.5,0-2.4,0-.5.2-2,.3-2.5.1-.8.9-1.6.7-2.6,3.3-.5.7-2.3.2-3.9-.4-1.3-.2-2.6-.4-3.9-.6-2.7-1.8-3.2-1.6-6.5,0-1.4.9-2.1-.9-3-2.4-1.2-10.2-1-12.8,0-5.2,2.1-6.5,7.3-6,12.4.4,3.3,3.7,5.8,2.7,9-.8,2.8-4.3,2.9-6.7,3.9-1.7.7-3.3,1.7-4.7,2.9-1.2.9-2.9,2.9-4.1,3.5-.2.1-.5.2-.9.3,1.7,2.1,2.5,4.6,3.2,7,.3,1,.6,2,1,2.9.2.6.5,1.2.8,1.8.8,1.7,1.7,3.7,1.5,5.5-.1,1.7-1,3.1-1.8,4.3-.9,1.5-1.8,2.9-1.7,4.9,0,.4,0,.5.1.6,0,0,0,0,.3,0,1.2-.8,3-1.4,4.8-2,1.9-.7,3.9-1.3,5-2.2.9-.7.9-1.6.9-2.7,0-.9,0-1.9.5-2.8.5-1,2.7-3.1,4-3,2.1.2,3.8,2.2,4.5,3.1,1.8,2.5,2.2,4-.2,6.7-1.7,2-8.7,6.3-12.4,8.6l-1.4.9c-.3.2-.6.4-1,.6-2,1.3-4.7,3-6.3,3.5-.6.2-1.1.2-1.6.2-.9,0-1.1,0-1.4,1.3-.2.7-.2,1.5-.3,2.2.5,0,.9.2,1.4.3-.5.5-1,1.1-1.5,1.7,0,1.3,0,2.7-.4,4.2-.3,1.1-.7,2.1-1.1,3.1-.4.8-.7,1.6-.9,2.4-.4,1.7.5,2.5,1.6,3.6.4.3.7.7,1.1,1.1,5.2,5.9,8.9,12.1,12.8,18.6,0,0,0,0,0,.1.3-.5.5-1,.7-1.6.2-.5.4-.2.7,0,2.1,1.6,4.5,5.8,7.7,5.2.9-.2,1.6-1.9,2.9-1.6,4.1,3,12,4.4,12.6,10.5.5,4.5.2,8.4,1.5,12.9,1.6,5.3,5.2,9.3,7.9,14,1.9,3.3,3.3,6.7,4.6,10.3.1,1.2-.3.9-.8,1.5-1.4,1.6,2.1,4,2.9,5.1,1.9,2.6,1.1,5.8,5.5,5.2,3.7-.5,4.2-3,6.5-4.8,1.5-1.3,4.3-2.3,6.1-3.5,4.3-2.8,7-5.7,7.8-11,.2-1.7-.4-3-2.3-2.8Z"/>
      <path class="st4" d="M405.3,485.1c4.9-.8,6.1,3.2,6.7,7.2.7,25.5-1,51.5,0,76.9.2,4.5.5,9.9,3,13.8s2.8,3,3.2,4.6c1.5,6.3-5.1,6.5-9.6,6.3s-9.7-1.3-15-1-12.4,2.3-16.2,0-2.4-4.1-1.2-6.2c1.7-3.1,5.1-5.6,5.1-9.9,1.2-21,.6-42.3.9-63.4-.2-1.8-.6-3.5-1.5-5.1-1.8-3.1-5.6-3.8-4.8-8.3s2.9-3.2,5-3.9c6.3-2,12.5-2.8,18.2-6.7,1.9-1.3,4.1-4,6.4-4.3Z"/>
    </g>
    <g id="track1" data-name="track">
      <path class="st4" d="M314.9,464.7c.4,0,.6,0,.9-.2.8-.5,3.5-3.4,4.3-4.3,2.2-2.5,6.1-7.5,5.4-11s-4.4-4.1-2.2-7.6,9.1-1.4,13-1.2,8.8-1.4,12.7-1,4.5,2.3,4.2,5.2-9.2,6.2-12.4,7.7-8.1,4.6-10.8,7c-4.3,4,1.3,3.5,3.9,4,13,2.6,14.4,24.6,22.1,34.1s5.5,4.7,2.3,7.6-9.4.9-13.1.6-7.7.5-11.7.8-5.5-1.9-7.1-5.6c-3.9-9-6.3-18.9-10.1-28-.2-.7-.8-.8-1.5-.7.6,7.1-1.4,17.2,1.8,23.7s4.1,4,3.8,7.1-1.4,2.7-3,3.1c-4.2,1.3-9.6-.2-13.9-.4s-14.8,2-18.8.3-2-1.3-2.2-2.7c-.4-3.5,1.7-4.2,3.2-6.8s2.3-8.2,2.4-12c.7-16.7-.4-33.9-.2-50.6-.2-4.7-6.9-6-5.1-11s7.7-3.4,10.3-4.2,7.1-2.4,9.9-4.3,4.1-4.5,7.7-3.8,2.4,1.3,3,2.8,1,3.4,1,4.3v47.1Z"/>
      <path class="st4" d="M248.6,438.4c15.5-.9,33.8,5,34.1,23.4.3,18.5-28.7,21.1-28,.3.1-3.5,1.1-7,1.3-10.4s.2-5.2-3.7-4.7-6.9,8.6-7.6,12.2c-2.5,11.9-2.6,39.6,15.9,37.3s8-7.1,11.8-11.6,10.9-2.5,10.5,3.9c-.5,9.5-11.8,14.7-19.8,16.5-22.6,5.1-47.1-4.4-48.5-30.2-1.2-21.9,12.7-35.4,34-36.6Z"/>
      <path class="st4" d="M107.6,452l3.7-5.8c5.4-6.8,16.1-9.8,24.2-6.7,8.6,3.3,4.4,15.9.8,21.6s-7.8-.5-12-3.1c-9.2-5.5-16.1,2.9-16.7,11.7s-.6,21,1.7,25.9,4.2,4.2,3.8,7.3-1.4,2.7-3,3.1c-4.2,1.3-9.4-.2-13.6-.4s-15.4,2-19.2.2-2-2.7-2.1-4.8c-2.8,3.3-7,4.9-11.2,5.3-29.5,3.1-19.1-36.4-21.2-53.7s-5.5-6.3-5.5-9.4.7-2.4,1.7-3.1c2.3-1.6,6.9-2.4,9.7-4,6.5-3.4,8.2-6.8,12.7-11.9,4.7-5.3,7.7-1.6,8.1,4.1s-.4,8.8.1,10,3.7.9,5.1,1c4.4.6,4.6,7.4.5,8.3s-5.3-.9-5.7,2c.5,10.8-.6,22,0,32.8.2,3.7.7,7.8,4,10s2.5.9,2.9,1.9c.7,1.5.2,3.2,0,4.8,3-2.5,3.9-6.6,4.3-10.3.7-7,.8-18.6.3-25.7s-2.3-4.7-4.6-7.9-.7-5.7,2.5-6.8c6.2-2.3,11.9-2.5,17.6-6.5s3.6-4.1,7-3.4,2.4,1.3,3,2.8,1,3.4,1,4.3v6.5Z"/>
      <path class="st4" d="M172.9,438.4c19.5-1.1,35,6.3,36.4,27.5.5,8.2-1.5,22.6,1.8,29.7s3.5,4,3.8,5.9c1.1,7.7-9.9,4.4-14.1,4.2s-3.7,0-5.3,0c-4,.2-10.9,2.8-12.5-2.8s-.2-5.1-2.6-5.3-7.9,4.6-10.1,5.8c-12.4,6.7-28,2.5-29.1-13.1-1.2-15.8,10.4-23.4,23.9-27.4s17.8-3,18.3-9.4-6.9-7.4-11.4-6.1c-7.4,2-9.7,12-16.7,14.5-7.7,2.7-12.7-3.5-9.8-10.8,3.8-9.2,18.6-12.2,27.4-12.7ZM180,467.5c-.9.2-5.4,2.6-6.5,3.2-4.8,2.8-7.1,5.8-6.7,11.6.7,9.6,12.4,10.4,15.4,2.2s1.5-11.4,1.1-14.9-1.3-2.5-3.4-2.1Z"/>
    </g>
    <g>
      <path d="M683.8,555.9c-1.1.1-3.8,1.9-5.1,2.4-2.4.9-4.8,1.3-7.4,1.1-.7,0-2.4-.5-2.9-.4-1.3.3-2,3.1-3.8,1.5-1.5-1.3-3.7-8.2-4.3-10.3-1.7-6.9-2.9-14-3.5-21.1-.5-5.6.3-8.5-3.3-13.3-2.5-3.4-5.6-6.6-8.3-9.8v-5.4c-.1,0-12.9-8.2-12.9-8.2-.5-2.3-.4-4.8-.2-7.1.4-4.2,1.7-8.4,3.6-12.1,1.6-.5,3.1-.8,4.5-1.8,3.4-2.3,6-5.8,9.7-8.1,2.5-1.5,6.6-2.6,6.7-6.1,0-2-2.4-5.8-4.6-5.7-.7,0-1.3.5-2,.5-1,0-1.5-1.3-2.6-.2-2,2.2.4,6-.8,7.6-.6.9-4.9,2-6.1,2.1-1,0-2.2,0-3.2,0,2-5.1,1.6-10.3,1.7-15.7,0-1,.3-1.9.2-3-.2-2.2-1.8-4.2-4.2-4.1-.3-1.8,1.3-4.6,3.1-4.9,1.1-.2,3,0,3.8-1,.6-1,0-1.5,0-2.4,0-.5.2-2,.3-2.5.1-.8.9-1.6.7-2.6,3.3-.5.7-2.3.2-3.9-.4-1.3-.2-2.6-.4-3.9-.6-2.7-1.8-3.2-1.6-6.5,0-1.4.9-2.1-.9-3-2.4-1.2-10.2-1-12.8,0-5.2,2.1-6.5,7.3-6,12.4.4,3.3,3.7,5.8,2.7,9-.8,2.8-4.3,2.9-6.7,3.9-1.7.7-3.3,1.7-4.7,2.9-1.2.9-2.9,2.9-4.1,3.5-.2.1-.5.2-.9.3,1.7,2.1,2.5,4.6,3.2,7,.3,1,.6,2,1,2.9.2.6.5,1.2.8,1.8.8,1.7,1.7,3.7,1.5,5.5-.1,1.7-1,3.1-1.8,4.3-.9,1.5-1.8,2.9-1.7,4.9,0,.4,0,.5.1.6,0,0,0,0,.3,0,1.2-.8,3-1.4,4.8-2,1.9-.7,3.9-1.3,5-2.2.9-.7.9-1.6.9-2.7,0-.9,0-1.9.5-2.8.5-1,2.7-3.1,4-3,2.1.2,3.8,2.2,4.5,3.1,1.8,2.5,2.2,4-.2,6.7-1.7,2-8.7,6.3-12.4,8.6l-1.4.9c-.3.2-.6.4-1,.6-2,1.3-4.7,3-6.3,3.5-.6.2-1.1.2-1.6.2-.9,0-1.1,0-1.4,1.3-.2.7-.2,1.5-.3,2.2.5,0,.9.2,1.4.3-.5.5-1,1.1-1.5,1.7,0,1.3,0,2.7-.4,4.2-.3,1.1-.7,2.1-1.1,3.1-.4.8-.7,1.6-.9,2.4-.4,1.7.5,2.5,1.6,3.6.4.3.7.7,1.1,1.1,5.2,5.9,8.9,12.1,12.8,18.6,0,0,0,0,0,.1.3-.5.5-1,.7-1.6.2-.5.4-.2.7,0,2.1,1.6,4.5,5.8,7.7,5.2.9-.2,1.6-1.9,2.9-1.6,4.1,3,12,4.4,12.6,10.5.5,4.5.2,8.4,1.5,12.9,1.6,5.3,5.2,9.3,7.9,14,1.9,3.3,3.3,6.7,4.6,10.3.1,1.2-.3.9-.8,1.5-1.4,1.6,2.1,4,2.9,5.1,1.9,2.6,1.1,5.8,5.5,5.2,3.7-.5,4.2-3,6.5-4.8,1.5-1.3,4.3-2.3,6.1-3.5,4.3-2.8,7-5.7,7.8-11,.2-1.7-.4-3-2.3-2.8Z"/>
      <path d="M610.6,527.2c-2-1.9-4.3-3.7-6.4-5.5-2.9-2.4-6-4.9-8.6-7.6-.4.4-.8.7-1.2,1.2-1,1.2-1.7,3-1.1,4.6.6,1.6,2.5.4,1.6,3.6-.5,1.9-2.8,6.2-4.9,6.5-2.1.4-4.2-1-6.6-1.1-4.7-.3-7.3.8-11.1,1.9-2.8,2.8-5.8,5.3-8.7,5.8-1.3.2-2.4.2-3.4.1-.7,0-1.3,0-2.1,0-2.7.1-6,.9-9.1,1.7-1.6.4-3.2.8-4.7,1.1-.8.2-1.7.3-2.7.5-.2,0-.4,0-.7.1-5.6.9-12.5,2.1-16.3,5.7-.5.4-.5.5-.4.9,0,.2,0,.5,0,.9-.3,2-3.1,4.2-4.8,4.8-.2,0-.4,0-.6,0-.2,0-.3,0-.4,0-.7.2-1.6,2.9-2.1,4.3-.3.9-.6,1.7-.8,2.2-.6,1.2-1.6,1.9-2.7,1.8-.8,0-1.5-.4-2.2-.9,0,3.9-.1,7.7-.3,11.4-.2,4.2-1,9.2-3.3,12.7-1.9,2.8-2.1,2.7-4,0-3.9-5.7-2.9-13.2-3.1-19.8-.3-10.9-.2-21.9-.5-32.7-.1-3.9,1-13.8-4.7-14.4-4-.4-5.3,2.2-8.2,4.2-6.6,4.5-13.1,4.5-19.9,7.3-2.2.9-3.6,1.8-3.5,4.4,0,3.6,3.1,4.2,4.7,6.7,2.4,3.8,1.9,15.2,1.7,19.9-.3,6.3-1,18.3-10.4,15.5-5.6-1.7-5.6-10.5-5.8-15.2-.5-8.8-.3-17.8-.5-26.7-.1-4,1-15.4-4.7-16.1-4.2-.5-5.5,2.3-8.6,4.4-6.2,4.1-12.4,4.5-19,6.9-3.6,1.3-5.6,3.8-3.3,7.5,2,3.2,4.8,3.5,5.4,8.3,1.5,13.9-5,40.7,10.8,48.1,9.7,4.5,22.4,1,30-5.9,1.1-1,4.3-5.9,5.4-2.6,1.1,3.3.2,7,3.6,9.4,3.6,2.5,11.6,0,16.1.1,4.4.1,11,2.2,15,.8.6-.2,1.8-1,2-1,.2,0,1.6.7,2.2.9,4.8,1.2,10.1-.4,14.9-.7,12.8-.7,25.9,1.8,38.6,1,25.1-1.5,33.7-31,27.7-53.1,2,0,3.9.1,5.9.2,1.8,0,2.7.4,4.5-.3,3.1-1.2,6.8-7.6,9.3-10.3.9-1,1.8-1.8,2.8-2.7-.2-.2-.4-.4-.6-.5ZM549.8,579.5c-8,.1-10.1-12.4-10.3-18.4,0-1.8,0-4.5.3-7.4,0,0,0,0,0,0,.5,1.5,1.3,3.6,2.4,3.7,2.5.3,2.7-3,3.6-4.7.7-1.2,4.6-6.9,5.5-7.4,1.3-.8,3.4-.4,4-.8.9-.6-.6-1.8-.7-2.3-.2-.9.5-1,1.2-1.2-.1,0-.2,0-.4.1,3.4,4.4,4.3,12.4,4.4,16.7.1,6.2-1.5,21.6-10,21.7Z"/>
    </g>
    <g>
      <path d="M569.1,433.5c.2,0,.7-.3.9-.4-.7-.8-1.8-1.2-1.7-2.4,3,3.1,7.6,0,8.1-3.6s-.6-3.2.8-5.2,2.9-2.1,4.9-2.9,2.8-1.8,4.5-1.5,1.8.9,2.7.4.7-2,1-2.8c1.6-5.3,8.9-7.1,13.8-6.4s4.3,1,5.1,3,1.6,5.2,1.7,6.4-.4,2.1.5,3.2,1.6,1,1.8,2.1-.7,2.2-.9,3.2-.1,2.7-.4,3.9c-.6,2.2-2.4,1.5-4.1,2s-3.3,2.7-3.4,4.4,1,1.5,1.9,2.2c3.3,2.9,3.8,7.1,5.2,11s2.5,4.9,2.3,7.1c-.3,3.6-3.8,5.3-3.5,9.3s.2,1.2,1.1,1c2.5-1.6,7.7-2.5,9.9-4.2s.6-3.7,1.6-5.7,2.5-2.8,3.6-2.7c1.7.1,3.2,1.6,4.1,2.9,1.8,2.5,2,3.7-.1,6.1-1.9,2.2-10.7,7.5-13.7,9.4s-5.3,3.5-7.2,4.1-2.8-.7-3.3,1.8,0,5.4-.8,8.3c-.5,2-1.6,3.8-2,5.5-.6,2.5,1.4,3.5,2.8,5.1,6.1,6.9,10.2,14.4,15,22.2,1.7,2.7,3.6,4.6,3.9,8.1.5,4.9.7,7.8,2.1,12.6,1.4,4.9,3.2,11.3,5.1,15.9s3.9,7.1,6,7.4,3-1.9,4-1.8,1.7,2.6,3.3,2.8,2.8-.1,4.1-.4,4.2-1.6,5.2-1.6c1.4,0,1.7,1.9,1.5,3-.7,3.1-7.3,7-10.2,8.1s-2.6.6-3.8,1c-2.7,1-5.6,4.1-8.8,4-2.3,0-2.2-2.1-2.8-3.7s-1.8-2.8-1.6-4.7.8-1.6.4-2.5c-2.1-3.5-3.8-7.2-5.8-10.8-3.8-6.5-7.1-10.4-8.8-18.1s.2-8.7-4.2-12.8c-4.9-4.6-10.6-8.5-15.2-13.3s-2.9-3.7-3.7-3.8-.8.3-1.1.7c-1.3,1.4-2.5,3.4-3.8,5-2.7,3.1-5.6,5.4-8.5,8.1s-9.9,11.6-15,12.5-3.5,0-5.4,0c-4.2.2-9.6,1.9-13.9,2.7s-15.2,1.9-19.9,6.4-.4,1-.6,2c-.2,1.7-2.8,3.9-4.4,4.4s-.7,0-1,.1c-1.4.4-2.5,5.4-3.2,6.8-1.3,2.6-4.2,1.6-5.3-.6s-.7-3.7-.2-5.7c1.4-6.5,4-13.1,5.7-19.5.8-1.6,3-.5,4.4-.2s1.6.4,2.3.7c1,.4,2.1,1.6,3.1,1.6,1.9,0,5.7-1.5,7.5-2.3,6.2-2.7,10.3-7.5,17.6-7.5s5.3,1.5,8.3-.3c3.6-2.2,6.8-9.7,9.2-13.4s7.8-8.9,8.1-13.4c.1-1.9-.5-3.4-.1-5.3s.9-2.3,1.3-3.5l-.4-.3c-3.9.5-5.7.4-6.9-3.5-2.7-8.6-5.4-17.3-8.4-25.8-.3-2,0-3.5,1.4-4.9,2.6-2.5,8.8-6.7,12-8.4s3.6-1.5,5.3-2.3,3.6-2.8,5.4-4.1c2.9-2.1,7.1-4,9.4-6.7,1.9-2.2,0-2.1-1.5-3.3-2.8-2.2-2.3-4.2-2.8-7.2s-1.9-1.6-2.6-.2c-2,3.9.8,7.6-1.7,11.7s-2.7,2.4-4,3.8-2.1,3.2-3.2,4.6c-2.4,2.9-5.5,3.8-9.2,3.6s-6.9-.8-7.4-2.1c0-.4.2-.2.4-.2,1.5-.1,3.3.3,5,.2s1.9-.4,2.7-.7c0-.3-.3-.1-.5,0-1.5.2-2.9.5-4.5,0,.8-1,2.6-.6,3.5-1.5-2.2,0-4.5,0-6.7,0s-2.6.5-2.7,0,.2-.4.4-.4l8.1-2.8c0-.3-.4-.2-.6-.2-1.5,0-2.9.2-4.4.3,1.8-1.5,4.2-2,6.3-3,0-.2-.2-.3-.4-.3-1.5-.7-3.7-.6-4.9-1.8,1.6-.2,3.6.2,5.1,0ZM587.1,451.3c-.1-.1-.4-.2-.5-.2-.6,0-4.5,2.7-5.5,3.2s-1.9,1-2.9,1.4c-2.7,1.2-7.2,1.6-7.7,5-.6,4.1,1,14.1,3.5,17.5,1.4,1.9,3.3,2.1,5,3.5s1.5,1.6,1.9,1.6l.6-.2c2.4-3.4,7.4-7.1,7.9-11.3.5-4,.3-10.9-.7-14.8-.6-.8-1.2-5.2-1.7-5.6Z"/>
      <path class="st1" d="M633.9,579.9s0,0-.1,0c-2.2,0-2.6-1.7-2.9-3,0-.4-.2-.7-.3-1.1-.2-.5-.4-.9-.6-1.3-.6-1-1.1-2.1-1-3.5,0-.4.2-.7.3-1,.2-.5.3-.9.1-1.2-1.1-1.8-2-3.7-3-5.5-.9-1.7-1.8-3.5-2.8-5.2-.8-1.4-1.6-2.6-2.3-3.8-2.8-4.4-5.1-8.2-6.5-14.4-.4-1.6-.5-3.1-.6-4.4-.3-3.1-.5-5.4-3.5-8.2-2-1.9-4.3-3.7-6.4-5.5-3-2.5-6.1-5-8.8-7.8-.2-.2-.5-.6-.8-1-.6-.8-2.1-2.6-2.5-2.7-.2,0-.3,0-.6.4v.2c-.8.7-1.4,1.6-2.1,2.6-.6.8-1.2,1.7-1.8,2.4-1.9,2.2-3.8,3.9-5.8,5.7-.9.8-1.8,1.6-2.7,2.5-1,.9-2.1,2.1-3.2,3.3-3.6,3.8-8,8.6-12,9.3-1.3.2-2.4.2-3.4.1-.7,0-1.3,0-2.1,0-2.7.1-6,.9-9.1,1.7-1.6.4-3.2.8-4.7,1.1-1,.2-2.2.4-3.3.6-5.6.9-12.5,2.1-16.3,5.7-.5.4-.5.5-.4.9,0,.2,0,.5,0,.9-.3,2-3.1,4.2-4.8,4.8-.2,0-.4,0-.6,0-.2,0-.3,0-.4,0-.7.2-1.6,2.9-2.1,4.3-.3.9-.6,1.7-.8,2.2-.6,1.2-1.6,1.9-2.7,1.8-1.3,0-2.7-1-3.4-2.5-1-2.1-.7-4.1-.3-6,.8-3.8,2.1-7.7,3.2-11.4.8-2.7,1.7-5.5,2.4-8.1h0c.9-1.8,3-1.1,4.3-.7.2,0,.4.1.6.2h.4c.7.3,1.3.5,1.9.7.4.2.9.5,1.3.8.5.4,1.1.7,1.5.7,1.7,0,5.3-1.4,7.4-2.2,2-.9,3.9-2,5.6-3.1,3.7-2.3,7.2-4.4,12.2-4.4,1.1,0,2,.2,2.9.3,1.8.3,3.3.6,5.2-.6,2.5-1.5,4.9-5.9,6.8-9.4.8-1.4,1.5-2.8,2.2-3.8.8-1.2,1.7-2.4,2.8-3.7,2.4-3,5.1-6.4,5.3-9.5,0-.8,0-1.5-.1-2.2-.1-1-.2-2,0-3.1.2-.9.5-1.6.8-2.4.1-.3.2-.5.3-.8-3.9.5-5.9.2-7.2-3.9-.7-2.3-1.4-4.5-2.2-6.8-2-6.2-4-12.7-6.2-18.9-.4-2.4,0-4,1.5-5.4,2.3-2.2,7.5-5.8,11.1-7.9-1.1.2-2.3.3-3.7.2,0,0-7.1-.6-7.8-2.4h0c0-.2,0-.5.1-.7.2-.2.5-.2.6-.2.7,0,1.5,0,2.2,0l.3-.4c.3-.3.6-.5,1-.7-.1,0-.2,0-.4,0-1.1,0-2.3,0-3.5,0,0,0-.3,0-.5,0-1.2.2-2.6.4-2.8-.5,0-.2,0-.7.7-1l5.5-1.9c-.3,0-.6,0-.8,0-.4,0-.9.1-1.4.1h-1.5c0,.1,1.2-.9,1.2-.9,1.2-1.1,2.7-1.6,4.2-2.1.5-.2,1-.3,1.4-.5-.4-.1-.9-.2-1.4-.4-1.2-.3-2.4-.5-3.2-1.4l-.8-.7h1.1c.8-.2,1.7-.1,2.5,0,.9,0,1.8,0,2.5,0,0,0,0,0,.1,0,0,0,0,0-.1,0-.6-.5-1.3-1.1-1.2-2.2v-1.1c0,0,.9.8.9.8,1,1,2.3,1.4,3.7.9,1.8-.6,3.3-2.4,3.6-4.3,0-.6,0-1.2,0-1.7,0-1.1-.2-2.2.9-3.7,1.2-1.6,2.4-2,3.8-2.6.4-.2.8-.3,1.3-.5.4-.2.8-.4,1.2-.6,1.1-.6,2.2-1.2,3.6-1,.4,0,.7.2,1.1.3.6.2.9.4,1.3.2.3-.2.5-1,.6-1.6,0-.3.1-.7.2-.9,1.7-5.8,9.6-7.5,14.4-6.8,1.1.2,4.5.7,5.5,3.3.5,1.2,1.6,5.3,1.8,6.5,0,.5,0,.9,0,1.3,0,.7,0,1.1.4,1.6.2.2.4.4.6.5.5.4,1.2.9,1.3,1.8,0,.7-.2,1.5-.5,2.2-.2.4-.3.8-.4,1.2-.1.6-.2,1.3-.2,1.9,0,.7,0,1.4-.2,2-.5,1.9-1.8,2-3,2.1-.5,0-1,0-1.4.2-1.5.5-3,2.4-3,4,0,.7.2.9.9,1.2.3.2.6.3.9.6,2.6,2.2,3.5,5.3,4.4,8.3.3,1,.6,2,1,2.9.2.6.5,1.2.8,1.8.8,1.7,1.7,3.7,1.5,5.5-.1,1.7-1,3.1-1.8,4.3-.9,1.5-1.8,2.9-1.7,4.9,0,.4,0,.5.1.6,0,0,0,0,.3,0,1.2-.8,3-1.4,4.8-2,1.9-.7,3.9-1.3,5-2.2.9-.7.9-1.6.9-2.7,0-.9,0-1.9.5-2.8.5-1,2.7-3.1,4-3,2.1.2,3.8,2.2,4.5,3.1,1.8,2.5,2.2,4-.2,6.7-1.7,2-8.7,6.3-12.4,8.6l-1.4.9c-.3.2-.6.4-1,.6-2,1.3-4.7,3-6.3,3.5-.6.2-1.1.2-1.6.2-.9,0-1.1,0-1.4,1.3-.3,1.3-.3,2.5-.3,3.8,0,1.4,0,2.9-.4,4.6-.3,1.1-.7,2.1-1.1,3.1-.4.8-.7,1.6-.9,2.4-.4,1.7.5,2.5,1.6,3.6.4.3.7.7,1.1,1.1,5.2,5.9,8.9,12.1,12.8,18.6.7,1.2,1.4,2.4,2.2,3.6.4.6.8,1.2,1.2,1.8,1.3,1.9,2.5,3.7,2.8,6.5.4,4.9.7,7.8,2.1,12.6l.2.8c1.4,4.8,3.1,10.7,4.9,15.1.8,2.1,3.9,6.9,5.6,7.1.8,0,1.5-.5,2.2-1,.6-.5,1.2-.9,1.8-.8.3,0,.6.3,1,.9.6.7,1.5,1.8,2.4,1.9,1.2.2,2.6,0,3.9-.4.6-.1,1.4-.4,2.3-.8,1.2-.4,2.4-.9,3-.9h0c.6,0,1.1.2,1.4.7.6.8.7,2,.5,2.9-.7,3.5-7.9,7.5-10.5,8.4-.6.2-1.3.4-1.9.5-.7.1-1.3.3-1.9.5-.9.4-1.9,1-2.9,1.6-1.9,1.2-3.8,2.4-5.9,2.4ZM591.9,509.2c0,0,.1,0,.2,0,.7,0,1.5,1,3.2,3,.3.4.6.7.8.9,2.6,2.8,5.7,5.3,8.7,7.8,2.2,1.8,4.4,3.6,6.5,5.5,3.3,3.1,3.5,5.8,3.8,8.9.1,1.3.2,2.7.6,4.2,1.3,6,3.5,9.6,6.4,14.1.7,1.2,1.5,2.5,2.3,3.8,1,1.7,2,3.5,2.9,5.3.9,1.8,1.9,3.7,3,5.5.4.8.1,1.5,0,2.1-.1.3-.2.5-.2.8-.1,1.1.4,2,.9,3,.2.5.5.9.7,1.5.1.4.2.8.3,1.2.4,1.4.6,2.2,2,2.2,1.9,0,3.7-1.1,5.5-2.3,1.1-.7,2.1-1.3,3.1-1.7.6-.2,1.3-.4,2-.5.6-.1,1.2-.3,1.8-.5,3.1-1.1,9.3-4.9,9.9-7.7.1-.6,0-1.6-.3-2.1-.2-.2-.4-.3-.7-.3h0c-.5,0-1.6.4-2.7.8-.9.3-1.8.7-2.4.8-1.4.3-2.9.6-4.3.4-1.3-.2-2.3-1.5-3-2.3-.1-.2-.3-.4-.4-.5-.2,0-.7.4-1,.6-.8.6-1.7,1.3-2.9,1.2-2.6-.3-5.8-6.2-6.4-7.7-1.8-4.4-3.5-10.4-4.9-15.2l-.2-.8c-1.4-4.9-1.7-7.8-2.1-12.7-.2-2.5-1.3-4.2-2.6-6-.4-.6-.8-1.2-1.2-1.8-.7-1.2-1.5-2.4-2.2-3.6-3.9-6.5-7.6-12.7-12.7-18.5-.3-.3-.7-.7-1-1-1.2-1.1-2.5-2.3-1.9-4.6.2-.8.6-1.7.9-2.5.4-.9.8-1.9,1.1-2.9.4-1.5.4-3,.4-4.4,0-1.3,0-2.6.3-4,.4-2,1.3-2.1,2.4-2.1.4,0,.8,0,1.3-.1,1.5-.5,4.2-2.2,6.1-3.4.4-.2.7-.5,1-.7l1.4-.9c3.7-2.3,10.5-6.5,12.2-8.4,1.9-2.2,1.8-3.2.1-5.5-.4-.6-2-2.5-3.7-2.7-.8,0-2.6,1.5-3.1,2.4-.4.8-.4,1.6-.4,2.4,0,1.3,0,2.5-1.3,3.5-1.2.9-3.3,1.6-5.3,2.3-1.7.6-3.5,1.2-4.7,1.9h-.2c-.4.2-.9.2-1.2,0-.4-.3-.5-.8-.5-1.3-.2-2.3.8-3.9,1.8-5.5.8-1.2,1.5-2.4,1.7-3.9.1-1.5-.7-3.3-1.5-5-.3-.7-.6-1.3-.8-1.9-.4-1-.7-2-1-3-.9-3-1.7-5.8-4.1-7.8-.2-.2-.5-.3-.7-.5-.7-.4-1.4-.8-1.4-2.2,0-2,1.8-4.3,3.7-4.9.5-.2,1.1-.2,1.6-.3,1.3-.1,1.9-.2,2.2-1.4.1-.6.2-1.2.2-1.8,0-.7,0-1.4.2-2,0-.4.3-.9.5-1.3.3-.6.5-1.3.5-1.7,0-.5-.4-.8-.9-1.1-.3-.2-.6-.4-.8-.7-.7-.9-.6-1.6-.6-2.3,0-.3,0-.7,0-1.1-.1-1.1-1.3-5.1-1.7-6.2-.6-1.4-2.1-2.3-4.7-2.7-4.4-.7-11.7.8-13.3,6.1,0,.2-.1.5-.2.8-.1.9-.3,1.9-1.1,2.3-.8.5-1.6.1-2.2-.1-.3-.1-.6-.2-.8-.3-1.1-.2-2,.3-3,.9-.4.2-.8.4-1.2.6-.5.2-.9.4-1.3.5-1.3.5-2.4.9-3.3,2.2-.8,1.1-.8,2-.7,3,0,.6,0,1.2,0,1.9-.3,2.2-2.1,4.4-4.3,5.1-1,.3-1.9.3-2.8,0,.2.2.4.3.5.5l.5.5-.7.2c0,0-.2,0-.3.2-.3.2-.5.3-.7.3h0c-.8.1-1.8,0-2.7,0-.1,0-.2,0-.3,0,.3,0,.7.2,1.1.3.7.2,1.4.3,2,.6.2,0,.7.3.7.8v.3s-.3.1-.3.1c-.8.4-1.6.7-2.4,1-.7.3-1.5.5-2.1.8.8,0,1.5-.1,2.4-.1,0,0,0,0,.1,0,.2,0,.5,0,.8.2.1.1.2.3.2.5v.3s-7.5,2.6-7.5,2.6c.3,0,.5,0,.7,0,.3,0,.5,0,.6,0,1.2,0,2.4,0,3.5,0,1.1,0,2.2,0,3.2,0h1.2s-.8.8-.8.8c-.5.5-1.2.7-1.9.8.6,0,1.3-.1,2-.2h.5c.2-.1.6-.2.8,0,0,0,.2.3.2.6v.3s-.4,0-.4,0c-.2,0-.5.1-.7.2-.7.2-1.4.4-2.1.5-.9,0-1.8,0-2.7,0-.6,0-1.2,0-1.8-.1,1.3.6,4.8,1.2,6.5,1.3,4,.2,6.7-.8,8.8-3.4.5-.6.9-1.3,1.4-2,.6-.9,1.2-1.8,1.9-2.6.5-.6,1.1-1,1.7-1.4.9-.6,1.7-1.3,2.3-2.3,1.2-2,1.1-3.9.9-5.9-.1-1.9-.3-3.8.8-5.8.5-.9,1.4-1.5,2.2-1.4.7.1,1.2.8,1.4,1.7,0,.6.1,1.2.2,1.7.2,2.1.3,3.5,2.4,5.1.3.3.7.5,1.1.7.7.4,1.3.7,1.4,1.4,0,.6-.2,1.2-.9,2-1.6,1.9-4,3.3-6.3,4.7-1.2.7-2.2,1.3-3.2,2-.7.5-1.3,1-2,1.6-1.1.9-2.2,1.9-3.5,2.5-.8.4-1.6.7-2.4,1-1,.4-2,.8-3,1.3-3.4,1.8-9.5,5.9-11.9,8.3-1.3,1.2-1.6,2.4-1.3,4.5,2.2,6.2,4.2,12.7,6.2,18.9.7,2.3,1.4,4.6,2.2,6.8,1.1,3.5,2.6,3.7,6.4,3.2h.2s.9.5.9.5v.4c-.3.4-.5.8-.6,1.2-.3.7-.6,1.4-.8,2.2-.2,1,0,1.9,0,2.8,0,.8.2,1.5.1,2.4-.2,3.3-3,6.9-5.5,10-1,1.3-2,2.5-2.7,3.6-.7,1-1.4,2.3-2.2,3.8-2.1,3.8-4.5,8.1-7.2,9.8-2.2,1.3-4,1-5.8.7-.9-.2-1.8-.3-2.8-.3-4.7,0-8.1,2.1-11.6,4.3-1.8,1.1-3.7,2.3-5.8,3.2-1.9.8-5.8,2.2-7.7,2.3-.8,0-1.5-.5-2.2-.9-.4-.3-.8-.5-1.1-.7-.5-.2-1.2-.4-1.8-.6h-.4c-.2-.2-.4-.2-.7-.3-1.5-.5-2.7-.8-3.1,0-.7,2.7-1.6,5.4-2.4,8.1-1.2,3.7-2.4,7.6-3.2,11.3-.4,1.8-.7,3.5.2,5.3.5,1.1,1.5,1.9,2.5,1.9,0,0,0,0,0,0,.7,0,1.4-.4,1.8-1.3.2-.4.5-1.2.8-2,.9-2.7,1.6-4.6,2.7-5,.3,0,.5,0,.7,0,.1,0,.3,0,.3,0,1.6-.5,3.9-2.5,4.1-4,0-.3,0-.5,0-.7,0-.6,0-.9.7-1.6,4-3.8,11.1-5,16.8-5.9,1.2-.2,2.3-.4,3.3-.6,1.4-.3,3-.7,4.6-1,3.2-.8,6.5-1.6,9.3-1.7.8,0,1.5,0,2.2,0,1,0,2,.1,3.2,0,3.7-.7,8-5.3,11.5-9,1.2-1.3,2.3-2.4,3.3-3.4.9-.9,1.8-1.7,2.7-2.5,2-1.8,3.9-3.5,5.7-5.6.6-.7,1.2-1.5,1.8-2.3.7-.9,1.4-1.9,2.1-2.7h.1c.3-.4.6-.8,1.3-.8ZM589.5,421.9c-.3,0-.7.2-1,.8-.9,1.7-.8,3.4-.6,5.3.2,2.1.3,4.2-1.1,6.5-.7,1.2-1.6,1.9-2.5,2.5-.6.4-1.1.8-1.6,1.3-.7.7-1.2,1.6-1.8,2.5-.4.7-.9,1.4-1.4,2.1-.4.5-.9,1-1.4,1.4.6-.3,1.3-.5,1.9-.8,1.1-.6,2.2-1.5,3.3-2.4.7-.6,1.3-1.2,2-1.7,1-.7,2.1-1.4,3.3-2.1,2.2-1.4,4.6-2.8,6.1-4.5.7-.8.7-1.1.7-1.2,0-.2-.5-.4-.9-.7-.4-.2-.8-.4-1.2-.7-2.4-1.9-2.6-3.7-2.8-5.8,0-.5,0-1.1-.2-1.7,0-.5-.3-.8-.6-.8,0,0,0,0,0,0ZM581,483.7h-.1c-.4,0-.7-.4-1.5-1.2-.2-.2-.5-.5-.6-.6-.6-.5-1.3-.8-1.9-1.1-1.1-.6-2.2-1.1-3.2-2.4-2.6-3.5-4.1-13.7-3.6-17.8.4-2.8,3.3-3.8,5.8-4.6.8-.2,1.5-.5,2.1-.8,1-.4,2.1-1,2.8-1.4.3-.2.9-.6,1.7-1,2.6-1.6,3.6-2.2,4-2.2.3,0,.7.1.9.3h0s0,0,0,0h0c.3.3.5.9.9,2.7.3,1.1.6,2.6.9,3v.2c1.1,4.1,1.2,11,.8,15-.4,3.1-2.9,5.8-5.2,8.2-1.1,1.2-2.1,2.2-2.8,3.3h0c0,.1-.8.5-.8.5ZM586.6,451.6c-.4,0-2.4,1.4-3.5,2.1-.8.5-1.4.9-1.7,1-.8.4-1.9,1-2.9,1.5-.7.3-1.4.5-2.2.8-2.4.8-4.8,1.6-5.2,3.8-.5,3.9.9,13.8,3.4,17.1.8,1.1,1.8,1.6,2.8,2.1.7.3,1.4.7,2.1,1.2.2.1.4.4.7.7.2.2.6.7.9.8h.2c.8-1.2,1.8-2.3,2.8-3.4,2.3-2.4,4.6-5,4.9-7.7.5-3.9.3-10.6-.6-14.5-.3-.5-.6-1.6-1-3.2-.2-.8-.4-1.9-.6-2.2,0,0-.1,0-.2,0Z"/>
    </g>
    <text class="st2" transform="translate(108.5 427.9)"><tspan x="0" y="0">S W M O</tspan></text>
    <g id="club3" data-name="club">
      <path class="st5" d="M716.7,222.8c-1.1.1-3.8,1.9-5.1,2.4-2.4.9-4.8,1.3-7.4,1.1-.7,0-2.4-.5-2.9-.4-1.3.3-2,3.1-3.8,1.5-1.5-1.3-3.7-8.2-4.3-10.3-1.7-6.9-2.9-14-3.5-21.1-.5-5.6.3-8.5-3.3-13.3-2.5-3.4-5.6-6.6-8.3-9.8v-5.4c-.1,0-12.9-8.2-12.9-8.2-.5-2.3-.4-4.8-.2-7.1.4-4.2,1.7-8.4,3.6-12.1,1.6-.5,3.1-.8,4.5-1.8,3.4-2.3,6-5.8,9.7-8.1,2.5-1.5,6.6-2.6,6.7-6.1,0-2-2.4-5.8-4.6-5.7-.7,0-1.3.5-2,.5-1,0-1.5-1.3-2.6-.2-2,2.2.4,6-.8,7.6-.6.9-4.9,2-6.1,2.1-1,0-2.2,0-3.2,0,2-5.1,1.6-10.3,1.7-15.7,0-1,.3-1.9.2-3-.2-2.2-1.8-4.2-4.2-4.1-.3-1.8,1.3-4.6,3.1-4.9,1.1-.2,3,0,3.8-1,.6-1,0-1.5,0-2.4,0-.5.2-2,.3-2.5.1-.8.9-1.6.7-2.6,3.3-.5.7-2.3.2-3.9-.4-1.3-.2-2.6-.4-3.9-.6-2.7-1.8-3.2-1.6-6.5,0-1.4.9-2.1-.9-3-2.4-1.2-10.2-1-12.8,0-5.2,2.1-6.5,7.3-6,12.4.4,3.3,3.7,5.8,2.7,9-.8,2.8-4.3,2.9-6.7,3.9-1.7.7-3.3,1.7-4.7,2.9-1.2.9-2.9,2.9-4.1,3.5-.2.1-.5.2-.9.3,1.7,2.1,2.5,4.6,3.2,7,.3,1,.6,2,1,2.9.2.6.5,1.2.8,1.8.8,1.7,1.7,3.7,1.5,5.5-.1,1.7-1,3.1-1.8,4.3-.9,1.5-1.8,2.9-1.7,4.9,0,.4,0,.5.1.6,0,0,0,0,.3,0,1.2-.8,3-1.4,4.8-2,1.9-.7,3.9-1.3,5-2.2.9-.7.9-1.6.9-2.7,0-.9,0-1.9.5-2.8.5-1,2.7-3.1,4-3,2.1.2,3.8,2.2,4.5,3.1,1.8,2.5,2.2,4-.2,6.7-1.7,2-8.7,6.3-12.4,8.6l-1.4.9c-.3.2-.6.4-1,.6-2,1.3-4.7,3-6.3,3.5-.6.2-1.1.2-1.6.2-.9,0-1.1,0-1.4,1.3-.2.7-.2,1.5-.3,2.2.5,0,.9.2,1.4.3-.5.5-1,1.1-1.5,1.7,0,1.3,0,2.7-.4,4.2-.3,1.1-.7,2.1-1.1,3.1-.4.8-.7,1.6-.9,2.4-.4,1.7.5,2.5,1.6,3.6.4.3.7.7,1.1,1.1,5.2,5.9,8.9,12.1,12.8,18.6,0,0,0,0,0,.1.3-.5.5-1,.7-1.6.2-.5.4-.2.7,0,2.1,1.6,4.5,5.8,7.7,5.2.9-.2,1.6-1.9,2.9-1.6,4.1,3,12,4.4,12.6,10.5.5,4.5.2,8.4,1.5,12.9,1.6,5.3,5.2,9.3,7.9,14,1.9,3.3,3.3,6.7,4.6,10.3.1,1.2-.3.9-.8,1.5-1.4,1.6,2.1,4,2.9,5.1,1.9,2.6,1.1,5.8,5.5,5.2,3.7-.5,4.2-3,6.5-4.8,1.5-1.3,4.3-2.3,6.1-3.5,4.3-2.8,7-5.7,7.8-11,.2-1.7-.4-3-2.3-2.8Z"/>
    </g>
  </g>
  <g id="One_Color_White" class="st5">
    <path class="st1" d="M298.1,539.2H40.8v11.2h254.7c.4-3.9,1.3-7.7,2.7-11.2Z"/>
    <path class="st1" d="M304.2,581.7H40.8v10.4h276.4c-5.1-2.5-9.5-6-13-10.4Z"/>
    <path class="st1" d="M295.5,560.3H40.8v10.7h257.3c-1.3-3.4-2.2-6.9-2.6-10.7Z"/>
    <path class="st1" d="M315.9,519.1c.5-.2,1-.5,1.5-.7H40.8v10.4h263.4c3.2-4,7.2-7.3,11.8-9.7Z"/>
    <g id="club4" data-name="club">
      <g>
        <path class="st1" d="M554.3,537c.6-.1,1.2-.2,1.8-.3-.6,0-1.2.2-1.8.3Z"/>
        <path class="st1" d="M552.2,537.4c.6-.1,1.2-.3,1.8-.4-.6.1-1.2.2-1.8.4Z"/>
        <path class="st1" d="M551.9,537.5c-.6.1-1.3.3-1.9.4h0c.6-.2,1.3-.3,1.9-.4Z"/>
        <path class="st1" d="M556.3,536.6c.6,0,1.2-.1,1.8-.2-.6,0-1.2,0-1.8.2Z"/>
        <path class="st1" d="M540.8,538.8c1.2-.2,2.3-.4,3.3-.6,1.4-.3,3-.7,4.6-1,3.2-.8,6.5-1.6,9.3-1.7.8,0,1.5,0,2.2,0,1,0,2,.1,3.2,0,3.7-.7,8-5.3,11.5-9,1.2-1.3,2.3-2.4,3.3-3.4,0,0,0,0,.1-.1-3.6-3.3-8.1-5.5-13.3-6.1-1.9,3.4-4,6.8-6.3,8.2-2.2,1.3-4,1-5.8.7-.9-.2-1.8-.3-2.8-.3-2.6,0-4.7.6-6.8,1.6-.9,1.3-2,2.7-2.3,2.7-.2,0-.6-.2-.6-.4v-.8c-.7.4-1.3.8-2,1.2-1.8,1.1-3.7,2.3-5.8,3.2-1.9.8-5.8,2.2-7.7,2.3-.8,0-1.5-.5-2.2-.9-.4-.3-.8-.5-1.1-.7-.5-.2-1.2-.4-1.8-.6h-.4c-.2-.2-.4-.2-.7-.3-1.5-.5-2.7-.8-3.1,0-.7,2.7-1.6,5.4-2.4,8.1-1,3-1.9,6.1-2.7,9.2,0,2.7,0,5.4,0,8,.6.8,1.4,1.3,2.2,1.3,0,0,0,0,0,0,.7,0,1.4-.4,1.8-1.3.2-.4.5-1.2.8-2,.9-2.7,1.6-4.6,2.7-5,.3,0,.5,0,.7,0,.1,0,.3,0,.3,0,1.6-.5,3.9-2.5,4.1-4,0-.3,0-.5,0-.7,0-.6,0-.9.7-1.6,4-3.8,11.1-5,16.8-5.9Z"/>
        <path class="st1" d="M570.1,532.7c0,0,.1,0,.2-.1,0,0-.1,0-.2.1Z"/>
        <path class="st1" d="M544.3,539.2c-.5,0-1,.2-1.5.3.5,0,1-.2,1.5-.3Z"/>
        <path class="st1" d="M546.2,538.8c-.6.1-1.3.3-1.9.4.6-.1,1.2-.3,1.9-.4h0Z"/>
        <path class="st1" d="M583.3,528.7c-1.3-1.9-2.7-3.6-4.2-5.1,0,0-.1.1-.2.2-1,.9-2.1,2.1-3.2,3.3-1.1,1.1-2.2,2.3-3.4,3.5,0,0,0,0,0,0,3.7-1.1,6.4-2.1,11-1.9Z"/>
        <path class="st1" d="M508.4,507.6c2.8,3.5,1.9,8,1.9,12.1,0,8.7.2,17.7.3,26.7.6-2,1.2-3.9,1.8-5.8.8-2.7,1.7-5.5,2.4-8.1h0c.9-1.8,3-1.1,4.3-.7.2,0,.4.1.6.2h.4c.7.3,1.3.5,1.9.7.4.2.9.5,1.3.8.5.4,1.1.7,1.5.7,1.7,0,5.3-1.4,7.4-2.2,2-.9,3.9-2,5.6-3.1.8-.5,1.7-1,2.5-1.5v-34.3c0-.7-.5-2.8-.7-3.6-.6-2.1-1.9-4.2-4.3-4.4-3.7-.3-5.1,2.3-7.8,4.1-6.7,4.6-13.1,4.7-20.1,7.4-2.3.9-3.7,2-3.6,4.6,0,3.5,2.5,4.2,4.4,6.5Z"/>
        <path class="st1" d="M550.1,524.4c1.1,0,2,.2,2.9.3,1.8.3,3.3.6,5.2-.6,2-1.2,4-4.4,5.7-7.4-1.5-.1-3-.1-4.6,0-5.6.5-10.9,4-14.5,8.1,0,.1-.2.3-.4.5,1.7-.6,3.5-1,5.6-1Z"/>
        <path class="st1" d="M567.9,534.4c0,0,.1-.1.2-.2,0,0-.1.1-.2.2Z"/>
        <path class="st1" d="M566.8,535.1c0,0,.1,0,.2-.1,0,0-.1,0-.2.1Z"/>
        <path class="st1" d="M565.7,535.7c0,0,.1,0,.2,0,0,0-.1,0-.2,0Z"/>
        <path class="st1" d="M564.6,536.2c0,0,.2,0,.3,0,0,0-.2,0-.3,0Z"/>
      </g>
      <path class="st1" d="M368.7,526.2c6.3,6.5,9.4,18.9,4,26.8-6.7,9.7-23,9.9-27.7-1.8-2.6-6.6,0-13.3.4-19.9,0-1.7.3-4.3-1.8-4.8-6.7-1.7-10,8.7-11.1,13.6-2.9,13.6-2.6,47.6,19.7,42,9.2-2.3,9.2-15.3,16.9-15.6s7.3,11,3.1,16c-11.1,13.2-39,13.9-53.6,6.9-26.6-12.7-27.2-54.1-1.3-67.6,14.1-7.3,39.7-7.6,51.4,4.4Z"/>
      <path class="st5" d="M683.8,555.9c-1.1.1-3.8,1.9-5.1,2.4-2.4.9-4.8,1.3-7.4,1.1-.7,0-2.4-.5-2.9-.4-1.3.3-2,3.1-3.8,1.5-1.5-1.3-3.7-8.2-4.3-10.3-1.7-6.9-2.9-14-3.5-21.1-.5-5.6.3-8.5-3.3-13.3-2.5-3.4-5.6-6.6-8.3-9.8v-5.4c-.1,0-12.9-8.2-12.9-8.2-.5-2.3-.4-4.8-.2-7.1.4-4.2,1.7-8.4,3.6-12.1,1.6-.5,3.1-.8,4.5-1.8,3.4-2.3,6-5.8,9.7-8.1,2.5-1.5,6.6-2.6,6.7-6.1,0-2-2.4-5.8-4.6-5.7-.7,0-1.3.5-2,.5-1,0-1.5-1.3-2.6-.2-2,2.2.4,6-.8,7.6-.6.9-4.9,2-6.1,2.1-1,0-2.2,0-3.2,0,2-5.1,1.6-10.3,1.7-15.7,0-1,.3-1.9.2-3-.2-2.2-1.8-4.2-4.2-4.1-.3-1.8,1.3-4.6,3.1-4.9,1.1-.2,3,0,3.8-1,.6-1,0-1.5,0-2.4,0-.5.2-2,.3-2.5.1-.8.9-1.6.7-2.6,3.3-.5.7-2.3.2-3.9-.4-1.3-.2-2.6-.4-3.9-.6-2.7-1.8-3.2-1.6-6.5,0-1.4.9-2.1-.9-3-2.4-1.2-10.2-1-12.8,0-5.2,2.1-6.5,7.3-6,12.4.4,3.3,3.7,5.8,2.7,9-.8,2.8-4.3,2.9-6.7,3.9-1.7.7-3.3,1.7-4.7,2.9-1.2.9-2.9,2.9-4.1,3.5-.2.1-.5.2-.9.3,1.7,2.1,2.5,4.6,3.2,7,.3,1,.6,2,1,2.9.2.6.5,1.2.8,1.8.8,1.7,1.7,3.7,1.5,5.5-.1,1.7-1,3.1-1.8,4.3-.9,1.5-1.8,2.9-1.7,4.9,0,.4,0,.5.1.6,0,0,0,0,.3,0,1.2-.8,3-1.4,4.8-2,1.9-.7,3.9-1.3,5-2.2.9-.7.9-1.6.9-2.7,0-.9,0-1.9.5-2.8.5-1,2.7-3.1,4-3,2.1.2,3.8,2.2,4.5,3.1,1.8,2.5,2.2,4-.2,6.7-1.7,2-8.7,6.3-12.4,8.6l-1.4.9c-.3.2-.6.4-1,.6-2,1.3-4.7,3-6.3,3.5-.6.2-1.1.2-1.6.2-.9,0-1.1,0-1.4,1.3-.2.7-.2,1.5-.3,2.2.5,0,.9.2,1.4.3-.5.5-1,1.1-1.5,1.7,0,1.3,0,2.7-.4,4.2-.3,1.1-.7,2.1-1.1,3.1-.4.8-.7,1.6-.9,2.4-.4,1.7.5,2.5,1.6,3.6.4.3.7.7,1.1,1.1,5.2,5.9,8.9,12.1,12.8,18.6,0,0,0,0,0,.1.3-.5.5-1,.7-1.6.2-.5.4-.2.7,0,2.1,1.6,4.5,5.8,7.7,5.2.9-.2,1.6-1.9,2.9-1.6,4.1,3,12,4.4,12.6,10.5.5,4.5.2,8.4,1.5,12.9,1.6,5.3,5.2,9.3,7.9,14,1.9,3.3,3.3,6.7,4.6,10.3.1,1.2-.3.9-.8,1.5-1.4,1.6,2.1,4,2.9,5.1,1.9,2.6,1.1,5.8,5.5,5.2,3.7-.5,4.2-3,6.5-4.8,1.5-1.3,4.3-2.3,6.1-3.5,4.3-2.8,7-5.7,7.8-11,.2-1.7-.4-3-2.3-2.8Z"/>
      <path class="st1" d="M405.3,485.1c4.9-.8,6.1,3.2,6.7,7.2.7,25.5-1,51.5,0,76.9.2,4.5.5,9.9,3,13.8s2.8,3,3.2,4.6c1.5,6.3-5.1,6.5-9.6,6.3s-9.7-1.3-15-1-12.4,2.3-16.2,0-2.4-4.1-1.2-6.2c1.7-3.1,5.1-5.6,5.1-9.9,1.2-21,.6-42.3.9-63.4-.2-1.8-.6-3.5-1.5-5.1-1.8-3.1-5.6-3.8-4.8-8.3s2.9-3.2,5-3.9c6.3-2,12.5-2.8,18.2-6.7,1.9-1.3,4.1-4,6.4-4.3Z"/>
    </g>
    <g id="track2" data-name="track">
      <path class="st1" d="M314.9,464.7c.4,0,.6,0,.9-.2.8-.5,3.5-3.4,4.3-4.3,2.2-2.5,6.1-7.5,5.4-11s-4.4-4.1-2.2-7.6,9.1-1.4,13-1.2,8.8-1.4,12.7-1,4.5,2.3,4.2,5.2-9.2,6.2-12.4,7.7-8.1,4.6-10.8,7c-4.3,4,1.3,3.5,3.9,4,13,2.6,14.4,24.6,22.1,34.1s5.5,4.7,2.3,7.6-9.4.9-13.1.6-7.7.5-11.7.8-5.5-1.9-7.1-5.6c-3.9-9-6.3-18.9-10.1-28-.2-.7-.8-.8-1.5-.7.6,7.1-1.4,17.2,1.8,23.7s4.1,4,3.8,7.1-1.4,2.7-3,3.1c-4.2,1.3-9.6-.2-13.9-.4s-14.8,2-18.8.3-2-1.3-2.2-2.7c-.4-3.5,1.7-4.2,3.2-6.8s2.3-8.2,2.4-12c.7-16.7-.4-33.9-.2-50.6-.2-4.7-6.9-6-5.1-11s7.7-3.4,10.3-4.2,7.1-2.4,9.9-4.3,4.1-4.5,7.7-3.8,2.4,1.3,3,2.8,1,3.4,1,4.3v47.1Z"/>
      <path class="st1" d="M248.6,438.4c15.5-.9,33.8,5,34.1,23.4.3,18.5-28.7,21.1-28,.3.1-3.5,1.1-7,1.3-10.4s.2-5.2-3.7-4.7-6.9,8.6-7.6,12.2c-2.5,11.9-2.6,39.6,15.9,37.3s8-7.1,11.8-11.6,10.9-2.5,10.5,3.9c-.5,9.5-11.8,14.7-19.8,16.5-22.6,5.1-47.1-4.4-48.5-30.2-1.2-21.9,12.7-35.4,34-36.6Z"/>
      <path class="st1" d="M107.6,452l3.7-5.8c5.4-6.8,16.1-9.8,24.2-6.7,8.6,3.3,4.4,15.9.8,21.6s-7.8-.5-12-3.1c-9.2-5.5-16.1,2.9-16.7,11.7s-.6,21,1.7,25.9,4.2,4.2,3.8,7.3-1.4,2.7-3,3.1c-4.2,1.3-9.4-.2-13.6-.4s-15.4,2-19.2.2-2-2.7-2.1-4.8c-2.8,3.3-7,4.9-11.2,5.3-29.5,3.1-19.1-36.4-21.2-53.7s-5.5-6.3-5.5-9.4.7-2.4,1.7-3.1c2.3-1.6,6.9-2.4,9.7-4,6.5-3.4,8.2-6.8,12.7-11.9,4.7-5.3,7.7-1.6,8.1,4.1s-.4,8.8.1,10,3.7.9,5.1,1c4.4.6,4.6,7.4.5,8.3s-5.3-.9-5.7,2c.5,10.8-.6,22,0,32.8.2,3.7.7,7.8,4,10s2.5.9,2.9,1.9c.7,1.5.2,3.2,0,4.8,3-2.5,3.9-6.6,4.3-10.3.7-7,.8-18.6.3-25.7s-2.3-4.7-4.6-7.9-.7-5.7,2.5-6.8c6.2-2.3,11.9-2.5,17.6-6.5s3.6-4.1,7-3.4,2.4,1.3,3,2.8,1,3.4,1,4.3v6.5Z"/>
      <path class="st1" d="M172.9,438.4c19.5-1.1,35,6.3,36.4,27.5.5,8.2-1.5,22.6,1.8,29.7s3.5,4,3.8,5.9c1.1,7.7-9.9,4.4-14.1,4.2s-3.7,0-5.3,0c-4,.2-10.9,2.8-12.5-2.8s-.2-5.1-2.6-5.3-7.9,4.6-10.1,5.8c-12.4,6.7-28,2.5-29.1-13.1-1.2-15.8,10.4-23.4,23.9-27.4s17.8-3,18.3-9.4-6.9-7.4-11.4-6.1c-7.4,2-9.7,12-16.7,14.5-7.7,2.7-12.7-3.5-9.8-10.8,3.8-9.2,18.6-12.2,27.4-12.7ZM180,467.5c-.9.2-5.4,2.6-6.5,3.2-4.8,2.8-7.1,5.8-6.7,11.6.7,9.6,12.4,10.4,15.4,2.2s1.5-11.4,1.1-14.9-1.3-2.5-3.4-2.1Z"/>
    </g>
    <g>
      <path class="st1" d="M683.8,555.9c-1.1.1-3.8,1.9-5.1,2.4-2.4.9-4.8,1.3-7.4,1.1-.7,0-2.4-.5-2.9-.4-1.3.3-2,3.1-3.8,1.5-1.5-1.3-3.7-8.2-4.3-10.3-1.7-6.9-2.9-14-3.5-21.1-.5-5.6.3-8.5-3.3-13.3-2.5-3.4-5.6-6.6-8.3-9.8v-5.4c-.1,0-12.9-8.2-12.9-8.2-.5-2.3-.4-4.8-.2-7.1.4-4.2,1.7-8.4,3.6-12.1,1.6-.5,3.1-.8,4.5-1.8,3.4-2.3,6-5.8,9.7-8.1,2.5-1.5,6.6-2.6,6.7-6.1,0-2-2.4-5.8-4.6-5.7-.7,0-1.3.5-2,.5-1,0-1.5-1.3-2.6-.2-2,2.2.4,6-.8,7.6-.6.9-4.9,2-6.1,2.1-1,0-2.2,0-3.2,0,2-5.1,1.6-10.3,1.7-15.7,0-1,.3-1.9.2-3-.2-2.2-1.8-4.2-4.2-4.1-.3-1.8,1.3-4.6,3.1-4.9,1.1-.2,3,0,3.8-1,.6-1,0-1.5,0-2.4,0-.5.2-2,.3-2.5.1-.8.9-1.6.7-2.6,3.3-.5.7-2.3.2-3.9-.4-1.3-.2-2.6-.4-3.9-.6-2.7-1.8-3.2-1.6-6.5,0-1.4.9-2.1-.9-3-2.4-1.2-10.2-1-12.8,0-5.2,2.1-6.5,7.3-6,12.4.4,3.3,3.7,5.8,2.7,9-.8,2.8-4.3,2.9-6.7,3.9-1.7.7-3.3,1.7-4.7,2.9-1.2.9-2.9,2.9-4.1,3.5-.2.1-.5.2-.9.3,1.7,2.1,2.5,4.6,3.2,7,.3,1,.6,2,1,2.9.2.6.5,1.2.8,1.8.8,1.7,1.7,3.7,1.5,5.5-.1,1.7-1,3.1-1.8,4.3-.9,1.5-1.8,2.9-1.7,4.9,0,.4,0,.5.1.6,0,0,0,0,.3,0,1.2-.8,3-1.4,4.8-2,1.9-.7,3.9-1.3,5-2.2.9-.7.9-1.6.9-2.7,0-.9,0-1.9.5-2.8.5-1,2.7-3.1,4-3,2.1.2,3.8,2.2,4.5,3.1,1.8,2.5,2.2,4-.2,6.7-1.7,2-8.7,6.3-12.4,8.6l-1.4.9c-.3.2-.6.4-1,.6-2,1.3-4.7,3-6.3,3.5-.6.2-1.1.2-1.6.2-.9,0-1.1,0-1.4,1.3-.2.7-.2,1.5-.3,2.2.5,0,.9.2,1.4.3-.5.5-1,1.1-1.5,1.7,0,1.3,0,2.7-.4,4.2-.3,1.1-.7,2.1-1.1,3.1-.4.8-.7,1.6-.9,2.4-.4,1.7.5,2.5,1.6,3.6.4.3.7.7,1.1,1.1,5.2,5.9,8.9,12.1,12.8,18.6,0,0,0,0,0,.1.3-.5.5-1,.7-1.6.2-.5.4-.2.7,0,2.1,1.6,4.5,5.8,7.7,5.2.9-.2,1.6-1.9,2.9-1.6,4.1,3,12,4.4,12.6,10.5.5,4.5.2,8.4,1.5,12.9,1.6,5.3,5.2,9.3,7.9,14,1.9,3.3,3.3,6.7,4.6,10.3.1,1.2-.3.9-.8,1.5-1.4,1.6,2.1,4,2.9,5.1,1.9,2.6,1.1,5.8,5.5,5.2,3.7-.5,4.2-3,6.5-4.8,1.5-1.3,4.3-2.3,6.1-3.5,4.3-2.8,7-5.7,7.8-11,.2-1.7-.4-3-2.3-2.8Z"/>
      <path class="st1" d="M610.6,527.2c-2-1.9-4.3-3.7-6.4-5.5-2.9-2.4-6-4.9-8.6-7.6-.4.4-.8.7-1.2,1.2-1,1.2-1.7,3-1.1,4.6.6,1.6,2.5.4,1.6,3.6-.5,1.9-2.8,6.2-4.9,6.5-2.1.4-4.2-1-6.6-1.1-4.7-.3-7.3.8-11.1,1.9-2.8,2.8-5.8,5.3-8.7,5.8-1.3.2-2.4.2-3.4.1-.7,0-1.3,0-2.1,0-2.7.1-6,.9-9.1,1.7-1.6.4-3.2.8-4.7,1.1-.8.2-1.7.3-2.7.5-.2,0-.4,0-.7.1-5.6.9-12.5,2.1-16.3,5.7-.5.4-.5.5-.4.9,0,.2,0,.5,0,.9-.3,2-3.1,4.2-4.8,4.8-.2,0-.4,0-.6,0-.2,0-.3,0-.4,0-.7.2-1.6,2.9-2.1,4.3-.3.9-.6,1.7-.8,2.2-.6,1.2-1.6,1.9-2.7,1.8-.8,0-1.5-.4-2.2-.9,0,3.9-.1,7.7-.3,11.4-.2,4.2-1,9.2-3.3,12.7-1.9,2.8-2.1,2.7-4,0-3.9-5.7-2.9-13.2-3.1-19.8-.3-10.9-.2-21.9-.5-32.7-.1-3.9,1-13.8-4.7-14.4-4-.4-5.3,2.2-8.2,4.2-6.6,4.5-13.1,4.5-19.9,7.3-2.2.9-3.6,1.8-3.5,4.4,0,3.6,3.1,4.2,4.7,6.7,2.4,3.8,1.9,15.2,1.7,19.9-.3,6.3-1,18.3-10.4,15.5-5.6-1.7-5.6-10.5-5.8-15.2-.5-8.8-.3-17.8-.5-26.7-.1-4,1-15.4-4.7-16.1-4.2-.5-5.5,2.3-8.6,4.4-6.2,4.1-12.4,4.5-19,6.9-3.6,1.3-5.6,3.8-3.3,7.5,2,3.2,4.8,3.5,5.4,8.3,1.5,13.9-5,40.7,10.8,48.1,9.7,4.5,22.4,1,30-5.9,1.1-1,4.3-5.9,5.4-2.6,1.1,3.3.2,7,3.6,9.4,3.6,2.5,11.6,0,16.1.1,4.4.1,11,2.2,15,.8.6-.2,1.8-1,2-1,.2,0,1.6.7,2.2.9,4.8,1.2,10.1-.4,14.9-.7,12.8-.7,25.9,1.8,38.6,1,25.1-1.5,33.7-31,27.7-53.1,2,0,3.9.1,5.9.2,1.8,0,2.7.4,4.5-.3,3.1-1.2,6.8-7.6,9.3-10.3.9-1,1.8-1.8,2.8-2.7-.2-.2-.4-.4-.6-.5ZM549.8,579.5c-8,.1-10.1-12.4-10.3-18.4,0-1.8,0-4.5.3-7.4,0,0,0,0,0,0,.5,1.5,1.3,3.6,2.4,3.7,2.5.3,2.7-3,3.6-4.7.7-1.2,4.6-6.9,5.5-7.4,1.3-.8,3.4-.4,4-.8.9-.6-.6-1.8-.7-2.3-.2-.9.5-1,1.2-1.2-.1,0-.2,0-.4.1,3.4,4.4,4.3,12.4,4.4,16.7.1,6.2-1.5,21.6-10,21.7Z"/>
    </g>
    <g>
      <path class="st1" d="M569.1,433.5c.2,0,.7-.3.9-.4-.7-.8-1.8-1.2-1.7-2.4,3,3.1,7.6,0,8.1-3.6s-.6-3.2.8-5.2,2.9-2.1,4.9-2.9,2.8-1.8,4.5-1.5,1.8.9,2.7.4.7-2,1-2.8c1.6-5.3,8.9-7.1,13.8-6.4s4.3,1,5.1,3,1.6,5.2,1.7,6.4-.4,2.1.5,3.2,1.6,1,1.8,2.1-.7,2.2-.9,3.2-.1,2.7-.4,3.9c-.6,2.2-2.4,1.5-4.1,2s-3.3,2.7-3.4,4.4,1,1.5,1.9,2.2c3.3,2.9,3.8,7.1,5.2,11s2.5,4.9,2.3,7.1c-.3,3.6-3.8,5.3-3.5,9.3s.2,1.2,1.1,1c2.5-1.6,7.7-2.5,9.9-4.2s.6-3.7,1.6-5.7,2.5-2.8,3.6-2.7c1.7.1,3.2,1.6,4.1,2.9,1.8,2.5,2,3.7-.1,6.1-1.9,2.2-10.7,7.5-13.7,9.4s-5.3,3.5-7.2,4.1-2.8-.7-3.3,1.8,0,5.4-.8,8.3c-.5,2-1.6,3.8-2,5.5-.6,2.5,1.4,3.5,2.8,5.1,6.1,6.9,10.2,14.4,15,22.2,1.7,2.7,3.6,4.6,3.9,8.1.5,4.9.7,7.8,2.1,12.6,1.4,4.9,3.2,11.3,5.1,15.9s3.9,7.1,6,7.4,3-1.9,4-1.8,1.7,2.6,3.3,2.8,2.8-.1,4.1-.4,4.2-1.6,5.2-1.6c1.4,0,1.7,1.9,1.5,3-.7,3.1-7.3,7-10.2,8.1s-2.6.6-3.8,1c-2.7,1-5.6,4.1-8.8,4-2.3,0-2.2-2.1-2.8-3.7s-1.8-2.8-1.6-4.7.8-1.6.4-2.5c-2.1-3.5-3.8-7.2-5.8-10.8-3.8-6.5-7.1-10.4-8.8-18.1s.2-8.7-4.2-12.8c-4.9-4.6-10.6-8.5-15.2-13.3s-2.9-3.7-3.7-3.8-.8.3-1.1.7c-1.3,1.4-2.5,3.4-3.8,5-2.7,3.1-5.6,5.4-8.5,8.1s-9.9,11.6-15,12.5-3.5,0-5.4,0c-4.2.2-9.6,1.9-13.9,2.7s-15.2,1.9-19.9,6.4-.4,1-.6,2c-.2,1.7-2.8,3.9-4.4,4.4s-.7,0-1,.1c-1.4.4-2.5,5.4-3.2,6.8-1.3,2.6-4.2,1.6-5.3-.6s-.7-3.7-.2-5.7c1.4-6.5,4-13.1,5.7-19.5.8-1.6,3-.5,4.4-.2s1.6.4,2.3.7c1,.4,2.1,1.6,3.1,1.6,1.9,0,5.7-1.5,7.5-2.3,6.2-2.7,10.3-7.5,17.6-7.5s5.3,1.5,8.3-.3c3.6-2.2,6.8-9.7,9.2-13.4s7.8-8.9,8.1-13.4c.1-1.9-.5-3.4-.1-5.3s.9-2.3,1.3-3.5l-.4-.3c-3.9.5-5.7.4-6.9-3.5-2.7-8.6-5.4-17.3-8.4-25.8-.3-2,0-3.5,1.4-4.9,2.6-2.5,8.8-6.7,12-8.4s3.6-1.5,5.3-2.3,3.6-2.8,5.4-4.1c2.9-2.1,7.1-4,9.4-6.7,1.9-2.2,0-2.1-1.5-3.3-2.8-2.2-2.3-4.2-2.8-7.2s-1.9-1.6-2.6-.2c-2,3.9.8,7.6-1.7,11.7s-2.7,2.4-4,3.8-2.1,3.2-3.2,4.6c-2.4,2.9-5.5,3.8-9.2,3.6s-6.9-.8-7.4-2.1c0-.4.2-.2.4-.2,1.5-.1,3.3.3,5,.2s1.9-.4,2.7-.7c0-.3-.3-.1-.5,0-1.5.2-2.9.5-4.5,0,.8-1,2.6-.6,3.5-1.5-2.2,0-4.5,0-6.7,0s-2.6.5-2.7,0,.2-.4.4-.4l8.1-2.8c0-.3-.4-.2-.6-.2-1.5,0-2.9.2-4.4.3,1.8-1.5,4.2-2,6.3-3,0-.2-.2-.3-.4-.3-1.5-.7-3.7-.6-4.9-1.8,1.6-.2,3.6.2,5.1,0ZM587.1,451.3c-.1-.1-.4-.2-.5-.2-.6,0-4.5,2.7-5.5,3.2s-1.9,1-2.9,1.4c-2.7,1.2-7.2,1.6-7.7,5-.6,4.1,1,14.1,3.5,17.5,1.4,1.9,3.3,2.1,5,3.5s1.5,1.6,1.9,1.6l.6-.2c2.4-3.4,7.4-7.1,7.9-11.3.5-4,.3-10.9-.7-14.8-.6-.8-1.2-5.2-1.7-5.6Z"/>
      <path class="st1" d="M633.9,579.9s0,0-.1,0c-2.2,0-2.6-1.7-2.9-3,0-.4-.2-.7-.3-1.1-.2-.5-.4-.9-.6-1.3-.6-1-1.1-2.1-1-3.5,0-.4.2-.7.3-1,.2-.5.3-.9.1-1.2-1.1-1.8-2-3.7-3-5.5-.9-1.7-1.8-3.5-2.8-5.2-.8-1.4-1.6-2.6-2.3-3.8-2.8-4.4-5.1-8.2-6.5-14.4-.4-1.6-.5-3.1-.6-4.4-.3-3.1-.5-5.4-3.5-8.2-2-1.9-4.3-3.7-6.4-5.5-3-2.5-6.1-5-8.8-7.8-.2-.2-.5-.6-.8-1-.6-.8-2.1-2.6-2.5-2.7-.2,0-.3,0-.6.4v.2c-.8.7-1.4,1.6-2.1,2.6-.6.8-1.2,1.7-1.8,2.4-1.9,2.2-3.8,3.9-5.8,5.7-.9.8-1.8,1.6-2.7,2.5-1,.9-2.1,2.1-3.2,3.3-3.6,3.8-8,8.6-12,9.3-1.3.2-2.4.2-3.4.1-.7,0-1.3,0-2.1,0-2.7.1-6,.9-9.1,1.7-1.6.4-3.2.8-4.7,1.1-1,.2-2.2.4-3.3.6-5.6.9-12.5,2.1-16.3,5.7-.5.4-.5.5-.4.9,0,.2,0,.5,0,.9-.3,2-3.1,4.2-4.8,4.8-.2,0-.4,0-.6,0-.2,0-.3,0-.4,0-.7.2-1.6,2.9-2.1,4.3-.3.9-.6,1.7-.8,2.2-.6,1.2-1.6,1.9-2.7,1.8-1.3,0-2.7-1-3.4-2.5-1-2.1-.7-4.1-.3-6,.8-3.8,2.1-7.7,3.2-11.4.8-2.7,1.7-5.5,2.4-8.1h0c.9-1.8,3-1.1,4.3-.7.2,0,.4.1.6.2h.4c.7.3,1.3.5,1.9.7.4.2.9.5,1.3.8.5.4,1.1.7,1.5.7,1.7,0,5.3-1.4,7.4-2.2,2-.9,3.9-2,5.6-3.1,3.7-2.3,7.2-4.4,12.2-4.4,1.1,0,2,.2,2.9.3,1.8.3,3.3.6,5.2-.6,2.5-1.5,4.9-5.9,6.8-9.4.8-1.4,1.5-2.8,2.2-3.8.8-1.2,1.7-2.4,2.8-3.7,2.4-3,5.1-6.4,5.3-9.5,0-.8,0-1.5-.1-2.2-.1-1-.2-2,0-3.1.2-.9.5-1.6.8-2.4.1-.3.2-.5.3-.8-3.9.5-5.9.2-7.2-3.9-.7-2.3-1.4-4.5-2.2-6.8-2-6.2-4-12.7-6.2-18.9-.4-2.4,0-4,1.5-5.4,2.3-2.2,7.5-5.8,11.1-7.9-1.1.2-2.3.3-3.7.2,0,0-7.1-.6-7.8-2.4h0c0-.2,0-.5.1-.7.2-.2.5-.2.6-.2.7,0,1.5,0,2.2,0l.3-.4c.3-.3.6-.5,1-.7-.1,0-.2,0-.4,0-1.1,0-2.3,0-3.5,0,0,0-.3,0-.5,0-1.2.2-2.6.4-2.8-.5,0-.2,0-.7.7-1l5.5-1.9c-.3,0-.6,0-.8,0-.4,0-.9.1-1.4.1h-1.5c0,.1,1.2-.9,1.2-.9,1.2-1.1,2.7-1.6,4.2-2.1.5-.2,1-.3,1.4-.5-.4-.1-.9-.2-1.4-.4-1.2-.3-2.4-.5-3.2-1.4l-.8-.7h1.1c.8-.2,1.7-.1,2.5,0,.9,0,1.8,0,2.5,0,0,0,0,0,.1,0,0,0,0,0-.1,0-.6-.5-1.3-1.1-1.2-2.2v-1.1c0,0,.9.8.9.8,1,1,2.3,1.4,3.7.9,1.8-.6,3.3-2.4,3.6-4.3,0-.6,0-1.2,0-1.7,0-1.1-.2-2.2.9-3.7,1.2-1.6,2.4-2,3.8-2.6.4-.2.8-.3,1.3-.5.4-.2.8-.4,1.2-.6,1.1-.6,2.2-1.2,3.6-1,.4,0,.7.2,1.1.3.6.2.9.4,1.3.2.3-.2.5-1,.6-1.6,0-.3.1-.7.2-.9,1.7-5.8,9.6-7.5,14.4-6.8,1.1.2,4.5.7,5.5,3.3.5,1.2,1.6,5.3,1.8,6.5,0,.5,0,.9,0,1.3,0,.7,0,1.1.4,1.6.2.2.4.4.6.5.5.4,1.2.9,1.3,1.8,0,.7-.2,1.5-.5,2.2-.2.4-.3.8-.4,1.2-.1.6-.2,1.3-.2,1.9,0,.7,0,1.4-.2,2-.5,1.9-1.8,2-3,2.1-.5,0-1,0-1.4.2-1.5.5-3,2.4-3,4,0,.7.2.9.9,1.2.3.2.6.3.9.6,2.6,2.2,3.5,5.3,4.4,8.3.3,1,.6,2,1,2.9.2.6.5,1.2.8,1.8.8,1.7,1.7,3.7,1.5,5.5-.1,1.7-1,3.1-1.8,4.3-.9,1.5-1.8,2.9-1.7,4.9,0,.4,0,.5.1.6,0,0,0,0,.3,0,1.2-.8,3-1.4,4.8-2,1.9-.7,3.9-1.3,5-2.2.9-.7.9-1.6.9-2.7,0-.9,0-1.9.5-2.8.5-1,2.7-3.1,4-3,2.1.2,3.8,2.2,4.5,3.1,1.8,2.5,2.2,4-.2,6.7-1.7,2-8.7,6.3-12.4,8.6l-1.4.9c-.3.2-.6.4-1,.6-2,1.3-4.7,3-6.3,3.5-.6.2-1.1.2-1.6.2-.9,0-1.1,0-1.4,1.3-.3,1.3-.3,2.5-.3,3.8,0,1.4,0,2.9-.4,4.6-.3,1.1-.7,2.1-1.1,3.1-.4.8-.7,1.6-.9,2.4-.4,1.7.5,2.5,1.6,3.6.4.3.7.7,1.1,1.1,5.2,5.9,8.9,12.1,12.8,18.6.7,1.2,1.4,2.4,2.2,3.6.4.6.8,1.2,1.2,1.8,1.3,1.9,2.5,3.7,2.8,6.5.4,4.9.7,7.8,2.1,12.6l.2.8c1.4,4.8,3.1,10.7,4.9,15.1.8,2.1,3.9,6.9,5.6,7.1.8,0,1.5-.5,2.2-1,.6-.5,1.2-.9,1.8-.8.3,0,.6.3,1,.9.6.7,1.5,1.8,2.4,1.9,1.2.2,2.6,0,3.9-.4.6-.1,1.4-.4,2.3-.8,1.2-.4,2.4-.9,3-.9h0c.6,0,1.1.2,1.4.7.6.8.7,2,.5,2.9-.7,3.5-7.9,7.5-10.5,8.4-.6.2-1.3.4-1.9.5-.7.1-1.3.3-1.9.5-.9.4-1.9,1-2.9,1.6-1.9,1.2-3.8,2.4-5.9,2.4ZM591.9,509.2c0,0,.1,0,.2,0,.7,0,1.5,1,3.2,3,.3.4.6.7.8.9,2.6,2.8,5.7,5.3,8.7,7.8,2.2,1.8,4.4,3.6,6.5,5.5,3.3,3.1,3.5,5.8,3.8,8.9.1,1.3.2,2.7.6,4.2,1.3,6,3.5,9.6,6.4,14.1.7,1.2,1.5,2.5,2.3,3.8,1,1.7,2,3.5,2.9,5.3.9,1.8,1.9,3.7,3,5.5.4.8.1,1.5,0,2.1-.1.3-.2.5-.2.8-.1,1.1.4,2,.9,3,.2.5.5.9.7,1.5.1.4.2.8.3,1.2.4,1.4.6,2.2,2,2.2,1.9,0,3.7-1.1,5.5-2.3,1.1-.7,2.1-1.3,3.1-1.7.6-.2,1.3-.4,2-.5.6-.1,1.2-.3,1.8-.5,3.1-1.1,9.3-4.9,9.9-7.7.1-.6,0-1.6-.3-2.1-.2-.2-.4-.3-.7-.3h0c-.5,0-1.6.4-2.7.8-.9.3-1.8.7-2.4.8-1.4.3-2.9.6-4.3.4-1.3-.2-2.3-1.5-3-2.3-.1-.2-.3-.4-.4-.5-.2,0-.7.4-1,.6-.8.6-1.7,1.3-2.9,1.2-2.6-.3-5.8-6.2-6.4-7.7-1.8-4.4-3.5-10.4-4.9-15.2l-.2-.8c-1.4-4.9-1.7-7.8-2.1-12.7-.2-2.5-1.3-4.2-2.6-6-.4-.6-.8-1.2-1.2-1.8-.7-1.2-1.5-2.4-2.2-3.6-3.9-6.5-7.6-12.7-12.7-18.5-.3-.3-.7-.7-1-1-1.2-1.1-2.5-2.3-1.9-4.6.2-.8.6-1.7.9-2.5.4-.9.8-1.9,1.1-2.9.4-1.5.4-3,.4-4.4,0-1.3,0-2.6.3-4,.4-2,1.3-2.1,2.4-2.1.4,0,.8,0,1.3-.1,1.5-.5,4.2-2.2,6.1-3.4.4-.2.7-.5,1-.7l1.4-.9c3.7-2.3,10.5-6.5,12.2-8.4,1.9-2.2,1.8-3.2.1-5.5-.4-.6-2-2.5-3.7-2.7-.8,0-2.6,1.5-3.1,2.4-.4.8-.4,1.6-.4,2.4,0,1.3,0,2.5-1.3,3.5-1.2.9-3.3,1.6-5.3,2.3-1.7.6-3.5,1.2-4.7,1.9h-.2c-.4.2-.9.2-1.2,0-.4-.3-.5-.8-.5-1.3-.2-2.3.8-3.9,1.8-5.5.8-1.2,1.5-2.4,1.7-3.9.1-1.5-.7-3.3-1.5-5-.3-.7-.6-1.3-.8-1.9-.4-1-.7-2-1-3-.9-3-1.7-5.8-4.1-7.8-.2-.2-.5-.3-.7-.5-.7-.4-1.4-.8-1.4-2.2,0-2,1.8-4.3,3.7-4.9.5-.2,1.1-.2,1.6-.3,1.3-.1,1.9-.2,2.2-1.4.1-.6.2-1.2.2-1.8,0-.7,0-1.4.2-2,0-.4.3-.9.5-1.3.3-.6.5-1.3.5-1.7,0-.5-.4-.8-.9-1.1-.3-.2-.6-.4-.8-.7-.7-.9-.6-1.6-.6-2.3,0-.3,0-.7,0-1.1-.1-1.1-1.3-5.1-1.7-6.2-.6-1.4-2.1-2.3-4.7-2.7-4.4-.7-11.7.8-13.3,6.1,0,.2-.1.5-.2.8-.1.9-.3,1.9-1.1,2.3-.8.5-1.6.1-2.2-.1-.3-.1-.6-.2-.8-.3-1.1-.2-2,.3-3,.9-.4.2-.8.4-1.2.6-.5.2-.9.4-1.3.5-1.3.5-2.4.9-3.3,2.2-.8,1.1-.8,2-.7,3,0,.6,0,1.2,0,1.9-.3,2.2-2.1,4.4-4.3,5.1-1,.3-1.9.3-2.8,0,.2.2.4.3.5.5l.5.5-.7.2c0,0-.2,0-.3.2-.3.2-.5.3-.7.3h0c-.8.1-1.8,0-2.7,0-.1,0-.2,0-.3,0,.3,0,.7.2,1.1.3.7.2,1.4.3,2,.6.2,0,.7.3.7.8v.3s-.3.1-.3.1c-.8.4-1.6.7-2.4,1-.7.3-1.5.5-2.1.8.8,0,1.5-.1,2.4-.1,0,0,0,0,.1,0,.2,0,.5,0,.8.2.1.1.2.3.2.5v.3s-7.5,2.6-7.5,2.6c.3,0,.5,0,.7,0,.3,0,.5,0,.6,0,1.2,0,2.4,0,3.5,0,1.1,0,2.2,0,3.2,0h1.2s-.8.8-.8.8c-.5.5-1.2.7-1.9.8.6,0,1.3-.1,2-.2h.5c.2-.1.6-.2.8,0,0,0,.2.3.2.6v.3s-.4,0-.4,0c-.2,0-.5.1-.7.2-.7.2-1.4.4-2.1.5-.9,0-1.8,0-2.7,0-.6,0-1.2,0-1.8-.1,1.3.6,4.8,1.2,6.5,1.3,4,.2,6.7-.8,8.8-3.4.5-.6.9-1.3,1.4-2,.6-.9,1.2-1.8,1.9-2.6.5-.6,1.1-1,1.7-1.4.9-.6,1.7-1.3,2.3-2.3,1.2-2,1.1-3.9.9-5.9-.1-1.9-.3-3.8.8-5.8.5-.9,1.4-1.5,2.2-1.4.7.1,1.2.8,1.4,1.7,0,.6.1,1.2.2,1.7.2,2.1.3,3.5,2.4,5.1.3.3.7.5,1.1.7.7.4,1.3.7,1.4,1.4,0,.6-.2,1.2-.9,2-1.6,1.9-4,3.3-6.3,4.7-1.2.7-2.2,1.3-3.2,2-.7.5-1.3,1-2,1.6-1.1.9-2.2,1.9-3.5,2.5-.8.4-1.6.7-2.4,1-1,.4-2,.8-3,1.3-3.4,1.8-9.5,5.9-11.9,8.3-1.3,1.2-1.6,2.4-1.3,4.5,2.2,6.2,4.2,12.7,6.2,18.9.7,2.3,1.4,4.6,2.2,6.8,1.1,3.5,2.6,3.7,6.4,3.2h.2s.9.5.9.5v.4c-.3.4-.5.8-.6,1.2-.3.7-.6,1.4-.8,2.2-.2,1,0,1.9,0,2.8,0,.8.2,1.5.1,2.4-.2,3.3-3,6.9-5.5,10-1,1.3-2,2.5-2.7,3.6-.7,1-1.4,2.3-2.2,3.8-2.1,3.8-4.5,8.1-7.2,9.8-2.2,1.3-4,1-5.8.7-.9-.2-1.8-.3-2.8-.3-4.7,0-8.1,2.1-11.6,4.3-1.8,1.1-3.7,2.3-5.8,3.2-1.9.8-5.8,2.2-7.7,2.3-.8,0-1.5-.5-2.2-.9-.4-.3-.8-.5-1.1-.7-.5-.2-1.2-.4-1.8-.6h-.4c-.2-.2-.4-.2-.7-.3-1.5-.5-2.7-.8-3.1,0-.7,2.7-1.6,5.4-2.4,8.1-1.2,3.7-2.4,7.6-3.2,11.3-.4,1.8-.7,3.5.2,5.3.5,1.1,1.5,1.9,2.5,1.9,0,0,0,0,0,0,.7,0,1.4-.4,1.8-1.3.2-.4.5-1.2.8-2,.9-2.7,1.6-4.6,2.7-5,.3,0,.5,0,.7,0,.1,0,.3,0,.3,0,1.6-.5,3.9-2.5,4.1-4,0-.3,0-.5,0-.7,0-.6,0-.9.7-1.6,4-3.8,11.1-5,16.8-5.9,1.2-.2,2.3-.4,3.3-.6,1.4-.3,3-.7,4.6-1,3.2-.8,6.5-1.6,9.3-1.7.8,0,1.5,0,2.2,0,1,0,2,.1,3.2,0,3.7-.7,8-5.3,11.5-9,1.2-1.3,2.3-2.4,3.3-3.4.9-.9,1.8-1.7,2.7-2.5,2-1.8,3.9-3.5,5.7-5.6.6-.7,1.2-1.5,1.8-2.3.7-.9,1.4-1.9,2.1-2.7h.1c.3-.4.6-.8,1.3-.8ZM589.5,421.9c-.3,0-.7.2-1,.8-.9,1.7-.8,3.4-.6,5.3.2,2.1.3,4.2-1.1,6.5-.7,1.2-1.6,1.9-2.5,2.5-.6.4-1.1.8-1.6,1.3-.7.7-1.2,1.6-1.8,2.5-.4.7-.9,1.4-1.4,2.1-.4.5-.9,1-1.4,1.4.6-.3,1.3-.5,1.9-.8,1.1-.6,2.2-1.5,3.3-2.4.7-.6,1.3-1.2,2-1.7,1-.7,2.1-1.4,3.3-2.1,2.2-1.4,4.6-2.8,6.1-4.5.7-.8.7-1.1.7-1.2,0-.2-.5-.4-.9-.7-.4-.2-.8-.4-1.2-.7-2.4-1.9-2.6-3.7-2.8-5.8,0-.5,0-1.1-.2-1.7,0-.5-.3-.8-.6-.8,0,0,0,0,0,0ZM581,483.7h-.1c-.4,0-.7-.4-1.5-1.2-.2-.2-.5-.5-.6-.6-.6-.5-1.3-.8-1.9-1.1-1.1-.6-2.2-1.1-3.2-2.4-2.6-3.5-4.1-13.7-3.6-17.8.4-2.8,3.3-3.8,5.8-4.6.8-.2,1.5-.5,2.1-.8,1-.4,2.1-1,2.8-1.4.3-.2.9-.6,1.7-1,2.6-1.6,3.6-2.2,4-2.2.3,0,.7.1.9.3h0s0,0,0,0h0c.3.3.5.9.9,2.7.3,1.1.6,2.6.9,3v.2c1.1,4.1,1.2,11,.8,15-.4,3.1-2.9,5.8-5.2,8.2-1.1,1.2-2.1,2.2-2.8,3.3h0c0,.1-.8.5-.8.5ZM586.6,451.6c-.4,0-2.4,1.4-3.5,2.1-.8.5-1.4.9-1.7,1-.8.4-1.9,1-2.9,1.5-.7.3-1.4.5-2.2.8-2.4.8-4.8,1.6-5.2,3.8-.5,3.9.9,13.8,3.4,17.1.8,1.1,1.8,1.6,2.8,2.1.7.3,1.4.7,2.1,1.2.2.1.4.4.7.7.2.2.6.7.9.8h.2c.8-1.2,1.8-2.3,2.8-3.4,2.3-2.4,4.6-5,4.9-7.7.5-3.9.3-10.6-.6-14.5-.3-.5-.6-1.6-1-3.2-.2-.8-.4-1.9-.6-2.2,0,0-.1,0-.2,0Z"/>
    </g>
    <text class="st0" transform="translate(108.5 427.9)"><tspan x="0" y="0">S W M O</tspan></text>
    <g id="club5" data-name="club">
      <path class="st5" d="M716.7,222.8c-1.1.1-3.8,1.9-5.1,2.4-2.4.9-4.8,1.3-7.4,1.1-.7,0-2.4-.5-2.9-.4-1.3.3-2,3.1-3.8,1.5-1.5-1.3-3.7-8.2-4.3-10.3-1.7-6.9-2.9-14-3.5-21.1-.5-5.6.3-8.5-3.3-13.3-2.5-3.4-5.6-6.6-8.3-9.8v-5.4c-.1,0-12.9-8.2-12.9-8.2-.5-2.3-.4-4.8-.2-7.1.4-4.2,1.7-8.4,3.6-12.1,1.6-.5,3.1-.8,4.5-1.8,3.4-2.3,6-5.8,9.7-8.1,2.5-1.5,6.6-2.6,6.7-6.1,0-2-2.4-5.8-4.6-5.7-.7,0-1.3.5-2,.5-1,0-1.5-1.3-2.6-.2-2,2.2.4,6-.8,7.6-.6.9-4.9,2-6.1,2.1-1,0-2.2,0-3.2,0,2-5.1,1.6-10.3,1.7-15.7,0-1,.3-1.9.2-3-.2-2.2-1.8-4.2-4.2-4.1-.3-1.8,1.3-4.6,3.1-4.9,1.1-.2,3,0,3.8-1,.6-1,0-1.5,0-2.4,0-.5.2-2,.3-2.5.1-.8.9-1.6.7-2.6,3.3-.5.7-2.3.2-3.9-.4-1.3-.2-2.6-.4-3.9-.6-2.7-1.8-3.2-1.6-6.5,0-1.4.9-2.1-.9-3-2.4-1.2-10.2-1-12.8,0-5.2,2.1-6.5,7.3-6,12.4.4,3.3,3.7,5.8,2.7,9-.8,2.8-4.3,2.9-6.7,3.9-1.7.7-3.3,1.7-4.7,2.9-1.2.9-2.9,2.9-4.1,3.5-.2.1-.5.2-.9.3,1.7,2.1,2.5,4.6,3.2,7,.3,1,.6,2,1,2.9.2.6.5,1.2.8,1.8.8,1.7,1.7,3.7,1.5,5.5-.1,1.7-1,3.1-1.8,4.3-.9,1.5-1.8,2.9-1.7,4.9,0,.4,0,.5.1.6,0,0,0,0,.3,0,1.2-.8,3-1.4,4.8-2,1.9-.7,3.9-1.3,5-2.2.9-.7.9-1.6.9-2.7,0-.9,0-1.9.5-2.8.5-1,2.7-3.1,4-3,2.1.2,3.8,2.2,4.5,3.1,1.8,2.5,2.2,4-.2,6.7-1.7,2-8.7,6.3-12.4,8.6l-1.4.9c-.3.2-.6.4-1,.6-2,1.3-4.7,3-6.3,3.5-.6.2-1.1.2-1.6.2-.9,0-1.1,0-1.4,1.3-.2.7-.2,1.5-.3,2.2.5,0,.9.2,1.4.3-.5.5-1,1.1-1.5,1.7,0,1.3,0,2.7-.4,4.2-.3,1.1-.7,2.1-1.1,3.1-.4.8-.7,1.6-.9,2.4-.4,1.7.5,2.5,1.6,3.6.4.3.7.7,1.1,1.1,5.2,5.9,8.9,12.1,12.8,18.6,0,0,0,0,0,.1.3-.5.5-1,.7-1.6.2-.5.4-.2.7,0,2.1,1.6,4.5,5.8,7.7,5.2.9-.2,1.6-1.9,2.9-1.6,4.1,3,12,4.4,12.6,10.5.5,4.5.2,8.4,1.5,12.9,1.6,5.3,5.2,9.3,7.9,14,1.9,3.3,3.3,6.7,4.6,10.3.1,1.2-.3.9-.8,1.5-1.4,1.6,2.1,4,2.9,5.1,1.9,2.6,1.1,5.8,5.5,5.2,3.7-.5,4.2-3,6.5-4.8,1.5-1.3,4.3-2.3,6.1-3.5,4.3-2.8,7-5.7,7.8-11,.2-1.7-.4-3-2.3-2.8Z"/>
    </g>
  </g>
  <g id="Black_and_White_Logo" class="st5">
    <rect class="st6" x="18.1" y="18.6" width="750.4" height="282.6"/>
    <path class="st1" d="M331.1,206.2H73.7v11.2h254.7c.4-3.9,1.3-7.7,2.7-11.2Z"/>
    <path class="st1" d="M337.1,248.6H73.7v10.4h276.4c-5.1-2.5-9.5-6-13-10.4Z"/>
    <path class="st1" d="M328.5,227.2H73.7v10.7h257.3c-1.3-3.4-2.2-6.9-2.6-10.7Z"/>
    <path class="st1" d="M348.8,186c.5-.2,1-.5,1.5-.7H73.7v10.4h263.4c3.2-4,7.2-7.3,11.8-9.7Z"/>
    <g>
      <path class="st4" d="M587.3,203.9c.6-.1,1.2-.2,1.8-.3-.6,0-1.2.2-1.8.3Z"/>
      <path class="st4" d="M585.1,204.3c.6-.1,1.2-.3,1.8-.4-.6.1-1.2.2-1.8.4Z"/>
      <path class="st4" d="M584.8,204.4c-.6.1-1.3.3-1.9.4h0c.6-.2,1.3-.3,1.9-.4Z"/>
      <path class="st4" d="M589.3,203.6c.6,0,1.2-.1,1.8-.2-.6,0-1.2,0-1.8.2Z"/>
      <path class="st4" d="M573.8,205.7c1.2-.2,2.3-.4,3.3-.6,1.4-.3,3-.7,4.6-1,3.2-.8,6.5-1.6,9.3-1.7.8,0,1.5,0,2.2,0,1,0,2,.1,3.2,0,3.7-.7,8-5.3,11.5-9,1.2-1.3,2.3-2.4,3.3-3.4,0,0,0,0,.1-.1-3.6-3.3-8.1-5.5-13.3-6.1-1.9,3.4-4,6.8-6.3,8.2-2.2,1.3-4,1-5.8.7-.9-.2-1.8-.3-2.8-.3-2.6,0-4.7.6-6.8,1.6-.9,1.3-2,2.7-2.3,2.7-.2,0-.6-.2-.6-.4v-.8c-.7.4-1.3.8-2,1.2-1.8,1.1-3.7,2.3-5.8,3.2-1.9.8-5.8,2.2-7.7,2.3-.8,0-1.5-.5-2.2-.9-.4-.3-.8-.5-1.1-.7-.5-.2-1.2-.4-1.8-.6h-.4c-.2-.2-.4-.2-.7-.3-1.5-.5-2.7-.8-3.1,0-.7,2.7-1.6,5.4-2.4,8.1-1,3-1.9,6.1-2.7,9.2,0,2.7,0,5.4,0,8,.6.8,1.4,1.3,2.2,1.3,0,0,0,0,0,0,.7,0,1.4-.4,1.8-1.3.2-.4.5-1.2.8-2,.9-2.7,1.6-4.6,2.7-5,.3,0,.5,0,.7,0,.1,0,.3,0,.3,0,1.6-.5,3.9-2.5,4.1-4,0-.3,0-.5,0-.7,0-.6,0-.9.7-1.6,4-3.8,11.1-5,16.8-5.9Z"/>
      <path class="st4" d="M603,199.6c0,0,.1,0,.2-.1,0,0-.1,0-.2.1Z"/>
      <path class="st4" d="M577.3,206.1c-.5,0-1,.2-1.5.3.5,0,1-.2,1.5-.3Z"/>
      <path class="st4" d="M579.1,205.7c-.6.1-1.3.3-1.9.4.6-.1,1.2-.3,1.9-.4h0Z"/>
      <path class="st4" d="M616.3,195.7c-1.3-1.9-2.7-3.6-4.2-5.1,0,0-.1.1-.2.2-1,.9-2.1,2.1-3.2,3.3-1.1,1.1-2.2,2.3-3.4,3.5,0,0,0,0,0,0,3.7-1.1,6.4-2.1,11-1.9Z"/>
      <path class="st4" d="M541.3,174.5c2.8,3.5,1.9,8,1.9,12.1,0,8.7.2,17.7.3,26.7.6-2,1.2-3.9,1.8-5.8.8-2.7,1.7-5.5,2.4-8.1h0c.9-1.8,3-1.1,4.3-.7.2,0,.4.1.6.2h.4c.7.3,1.3.5,1.9.7.4.2.9.5,1.3.8.5.4,1.1.7,1.5.7,1.7,0,5.3-1.4,7.4-2.2,2-.9,3.9-2,5.6-3.1.8-.5,1.7-1,2.5-1.5v-34.3c0-.7-.5-2.8-.7-3.6-.6-2.1-1.9-4.2-4.3-4.4-3.7-.3-5.1,2.3-7.8,4.1-6.7,4.6-13.1,4.7-20.1,7.4-2.3.9-3.7,2-3.6,4.6,0,3.5,2.5,4.2,4.4,6.5Z"/>
      <path class="st4" d="M583.1,191.3c1.1,0,2,.2,2.9.3,1.8.3,3.3.6,5.2-.6,2-1.2,4-4.4,5.7-7.4-1.5-.1-3-.1-4.6,0-5.6.5-10.9,4-14.5,8.1,0,.1-.2.3-.4.5,1.7-.6,3.5-1,5.6-1Z"/>
      <path class="st4" d="M600.8,201.4c0,0,.1-.1.2-.2,0,0-.1.1-.2.2Z"/>
      <path class="st4" d="M599.8,202c0,0,.1,0,.2-.1,0,0-.1,0-.2.1Z"/>
      <path class="st4" d="M598.6,202.7c0,0,.1,0,.2,0,0,0-.1,0-.2,0Z"/>
      <path class="st4" d="M597.5,203.1c0,0,.2,0,.3,0,0,0-.2,0-.3,0Z"/>
    </g>
    <path class="st4" d="M401.6,193.2c6.3,6.5,9.4,18.9,4,26.8-6.7,9.7-23,9.9-27.7-1.8-2.6-6.6,0-13.3.4-19.9,0-1.7.3-4.3-1.8-4.8-6.7-1.7-10,8.7-11.1,13.6-2.9,13.6-2.6,47.6,19.7,42,9.2-2.3,9.2-15.3,16.9-15.6s7.3,11,3.1,16c-11.1,13.2-39,13.9-53.6,6.9-26.6-12.7-27.2-54.1-1.3-67.6,14.1-7.3,39.7-7.6,51.4,4.4Z"/>
    <path class="st4" d="M438.2,152c4.9-.8,6.1,3.2,6.7,7.2.7,25.5-1,51.5,0,76.9.2,4.5.5,9.9,3,13.8s2.8,3,3.2,4.6c1.5,6.3-5.1,6.5-9.6,6.3s-9.7-1.3-15-1-12.4,2.3-16.2,0-2.4-4.1-1.2-6.2c1.7-3.1,5.1-5.6,5.1-9.9,1.2-21,.6-42.3.9-63.4-.2-1.8-.6-3.5-1.5-5.1-1.8-3.1-5.6-3.8-4.8-8.3s2.9-3.2,5-3.9c6.3-2,12.5-2.8,18.2-6.7,1.9-1.3,4.1-4,6.4-4.3Z"/>
    <g id="track3" data-name="track">
      <path class="st4" d="M347.9,131.6c.4,0,.6,0,.9-.2.8-.5,3.5-3.4,4.3-4.3,2.2-2.5,6.1-7.5,5.4-11-.5-2.5-4.4-4.1-2.2-7.6s9.1-1.4,13-1.2,8.8-1.4,12.7-1,4.5,2.3,4.2,5.2c-.5,3.9-9.2,6.2-12.4,7.7s-8.1,4.6-10.8,7c-4.3,4,1.3,3.5,3.9,4,13,2.6,14.4,24.6,22.1,34.1s5.5,4.7,2.3,7.6-9.4.9-13.1.6-7.7.5-11.7.8-5.5-1.9-7.1-5.6c-3.9-9-6.3-18.9-10.1-28-.2-.7-.8-.8-1.5-.7.6,7.1-1.4,17.2,1.8,23.7,1.2,2.5,4.1,4,3.8,7.1s-1.4,2.7-3,3.1c-4.2,1.3-9.6-.2-13.9-.4s-14.8,2-18.8.3-2-1.3-2.2-2.7c-.4-3.5,1.7-4.2,3.2-6.8s2.3-8.2,2.4-12c.7-16.7-.4-33.9-.2-50.6-.2-4.7-6.9-6-5.1-11s7.7-3.4,10.3-4.2,7.1-2.4,9.9-4.3,4.1-4.5,7.7-3.8,2.4,1.3,3,2.8,1,3.4,1,4.3v47.1Z"/>
      <path class="st4" d="M281.5,105.3c15.5-.9,33.8,5,34.1,23.4.3,18.5-28.7,21.1-28,.3.1-3.5,1.1-7,1.3-10.4s.2-5.2-3.7-4.7-6.9,8.6-7.6,12.2c-2.5,11.9-2.6,39.6,15.9,37.3s8-7.1,11.8-11.6,10.9-2.5,10.5,3.9c-.5,9.5-11.8,14.7-19.8,16.5-22.6,5.1-47.1-4.4-48.5-30.2-1.2-21.9,12.7-35.4,34-36.6Z"/>
      <path class="st4" d="M140.6,118.9l3.7-5.8c5.4-6.8,16.1-9.8,24.2-6.7,8.6,3.3,4.4,15.9.8,21.6s-7.8-.5-12-3.1c-9.2-5.5-16.1,2.9-16.7,11.7s-.6,21,1.7,25.9,4.2,4.2,3.8,7.3-1.4,2.7-3,3.1c-4.2,1.3-9.4-.2-13.6-.4s-15.4,2-19.2.2-2-2.7-2.1-4.8c-2.8,3.3-7,4.9-11.2,5.3-29.5,3.1-19.1-36.4-21.2-53.7s-5.5-6.3-5.5-9.4.7-2.4,1.7-3.1c2.3-1.6,6.9-2.4,9.7-4,6.5-3.4,8.2-6.8,12.7-11.9,4.7-5.3,7.7-1.6,8.1,4.1s-.4,8.8.1,10,3.7.9,5.1,1c4.4.6,4.6,7.4.5,8.3s-5.3-.9-5.7,2c.5,10.8-.6,22,0,32.8s.7,7.8,4,10,2.5.9,2.9,1.9c.7,1.5.2,3.2,0,4.8,3-2.5,3.9-6.6,4.3-10.3.7-7,.8-18.6.3-25.7s-2.3-4.7-4.6-7.9-.7-5.7,2.5-6.8c6.2-2.3,11.9-2.5,17.6-6.5s3.6-4.1,7-3.4,2.4,1.3,3,2.8,1,3.4,1,4.3v6.5Z"/>
      <path class="st4" d="M205.8,105.3c19.5-1.1,35,6.3,36.4,27.5.5,8.2-1.5,22.6,1.8,29.7.9,1.9,3.5,4,3.8,5.9,1.1,7.7-9.9,4.4-14.1,4.2s-3.7,0-5.3,0c-4,.2-10.9,2.8-12.5-2.8s-.2-5.1-2.6-5.3-7.9,4.6-10.1,5.8c-12.4,6.7-28,2.5-29.1-13.1-1.2-15.8,10.4-23.4,23.9-27.4s17.8-3,18.3-9.4-6.9-7.4-11.4-6.1c-7.4,2-9.7,12-16.7,14.5-7.7,2.7-12.7-3.5-9.8-10.8,3.8-9.2,18.6-12.2,27.4-12.7ZM212.9,134.5c-.9.2-5.4,2.6-6.5,3.2-4.8,2.8-7.1,5.8-6.7,11.6.7,9.6,12.4,10.4,15.4,2.2,1.2-3.3,1.5-11.4,1.1-14.9s-1.3-2.5-3.4-2.1Z"/>
    </g>
    <g>
      <path d="M716.7,222.8c-1.1.1-3.8,1.9-5.1,2.4-2.4.9-4.8,1.3-7.4,1.1-.7,0-2.4-.5-2.9-.4-1.3.3-2,3.1-3.8,1.5-1.5-1.3-3.7-8.2-4.3-10.3-1.7-6.9-2.9-14-3.5-21.1-.5-5.6.3-8.5-3.3-13.3-2.5-3.4-5.6-6.6-8.3-9.8v-5.4c-.1,0-12.9-8.2-12.9-8.2-.5-2.3-.4-4.8-.2-7.1.4-4.2,1.7-8.4,3.6-12.1,1.6-.5,3.1-.8,4.5-1.8,3.4-2.3,6-5.8,9.7-8.1,2.5-1.5,6.6-2.6,6.7-6.1,0-2-2.4-5.8-4.6-5.7-.7,0-1.3.5-2,.5-1,0-1.5-1.3-2.6-.2-2,2.2.4,6-.8,7.6-.6.9-4.9,2-6.1,2.1-1,0-2.2,0-3.2,0,2-5.1,1.6-10.3,1.7-15.7,0-1,.3-1.9.2-3-.2-2.2-1.8-4.2-4.2-4.1-.3-1.8,1.3-4.6,3.1-4.9,1.1-.2,3,0,3.8-1,.6-1,0-1.5,0-2.4,0-.5.2-2,.3-2.5.1-.8.9-1.6.7-2.6,3.3-.5.7-2.3.2-3.9-.4-1.3-.2-2.6-.4-3.9-.6-2.7-1.8-3.2-1.6-6.5,0-1.4.9-2.1-.9-3-2.4-1.2-10.2-1-12.8,0-5.2,2.1-6.5,7.3-6,12.4.4,3.3,3.7,5.8,2.7,9-.8,2.8-4.3,2.9-6.7,3.9-1.7.7-3.3,1.7-4.7,2.9-1.2.9-2.9,2.9-4.1,3.5-.2.1-.5.2-.9.3,1.7,2.1,2.5,4.6,3.2,7,.3,1,.6,2,1,2.9.2.6.5,1.2.8,1.8.8,1.7,1.7,3.7,1.5,5.5-.1,1.7-1,3.1-1.8,4.3-.9,1.5-1.8,2.9-1.7,4.9,0,.4,0,.5.1.6,0,0,0,0,.3,0,1.2-.8,3-1.4,4.8-2,1.9-.7,3.9-1.3,5-2.2.9-.7.9-1.6.9-2.7,0-.9,0-1.9.5-2.8.5-1,2.7-3.1,4-3,2.1.2,3.8,2.2,4.5,3.1,1.8,2.5,2.2,4-.2,6.7-1.7,2-8.7,6.3-12.4,8.6l-1.4.9c-.3.2-.6.4-1,.6-2,1.3-4.7,3-6.3,3.5-.6.2-1.1.2-1.6.2-.9,0-1.1,0-1.4,1.3-.2.7-.2,1.5-.3,2.2.5,0,.9.2,1.4.3-.5.5-1,1.1-1.5,1.7,0,1.3,0,2.7-.4,4.2-.3,1.1-.7,2.1-1.1,3.1-.4.8-.7,1.6-.9,2.4-.4,1.7.5,2.5,1.6,3.6.4.3.7.7,1.1,1.1,5.2,5.9,8.9,12.1,12.8,18.6,0,0,0,0,0,.1.3-.5.5-1,.7-1.6.2-.5.4-.2.7,0,2.1,1.6,4.5,5.8,7.7,5.2.9-.2,1.6-1.9,2.9-1.6,4.1,3,12,4.4,12.6,10.5.5,4.5.2,8.4,1.5,12.9,1.6,5.3,5.2,9.3,7.9,14,1.9,3.3,3.3,6.7,4.6,10.3.1,1.2-.3.9-.8,1.5-1.4,1.6,2.1,4,2.9,5.1,1.9,2.6,1.1,5.8,5.5,5.2,3.7-.5,4.2-3,6.5-4.8,1.5-1.3,4.3-2.3,6.1-3.5,4.3-2.8,7-5.7,7.8-11,.2-1.7-.4-3-2.3-2.8Z"/>
      <path d="M643.5,194.1c-2-1.9-4.3-3.7-6.4-5.5-2.9-2.4-6-4.9-8.6-7.6-.4.4-.8.7-1.2,1.2-1,1.2-1.7,3-1.1,4.6.6,1.6,2.5.4,1.6,3.6-.5,1.9-2.8,6.2-4.9,6.5-2.1.4-4.2-1-6.6-1.1-4.7-.3-7.3.8-11.1,1.9-2.8,2.8-5.8,5.3-8.7,5.8-1.3.2-2.4.2-3.4.1-.7,0-1.3,0-2.1,0-2.7.1-6,.9-9.1,1.7-1.6.4-3.2.8-4.7,1.1-.8.2-1.7.3-2.7.5-.2,0-.4,0-.7.1-5.6.9-12.5,2.1-16.3,5.7-.5.4-.5.5-.4.9,0,.2,0,.5,0,.9-.3,2-3.1,4.2-4.8,4.8-.2,0-.4,0-.6,0-.2,0-.3,0-.4,0-.7.2-1.6,2.9-2.1,4.3-.3.9-.6,1.7-.8,2.2-.6,1.2-1.6,1.9-2.7,1.8-.8,0-1.5-.4-2.2-.9,0,3.9-.1,7.7-.3,11.4-.2,4.2-1,9.2-3.3,12.7-1.9,2.8-2.1,2.7-4,0-3.9-5.7-2.9-13.2-3.1-19.8-.3-10.9-.2-21.9-.5-32.7-.1-3.9,1-13.8-4.7-14.4-4-.4-5.3,2.2-8.2,4.2-6.6,4.5-13.1,4.5-19.9,7.3-2.2.9-3.6,1.8-3.5,4.4,0,3.6,3.1,4.2,4.7,6.7,2.4,3.8,1.9,15.2,1.7,19.9-.3,6.3-1,18.3-10.4,15.5-5.6-1.7-5.6-10.5-5.8-15.2-.5-8.8-.3-17.8-.5-26.7-.1-4,1-15.4-4.7-16.1-4.2-.5-5.5,2.3-8.6,4.4-6.2,4.1-12.4,4.5-19,6.9-3.6,1.3-5.6,3.8-3.3,7.5,2,3.2,4.8,3.5,5.4,8.3,1.5,13.9-5,40.7,10.8,48.1,9.7,4.5,22.4,1,30-5.9,1.1-1,4.3-5.9,5.4-2.6,1.1,3.3.2,7,3.6,9.4,3.6,2.5,11.6,0,16.1.1,4.4.1,11,2.2,15,.8.6-.2,1.8-1,2-1,.2,0,1.6.7,2.2.9,4.8,1.2,10.1-.4,14.9-.7,12.8-.7,25.9,1.8,38.6,1,25.1-1.5,33.7-31,27.7-53.1,2,0,3.9.1,5.9.2,1.8,0,2.7.4,4.5-.3,3.1-1.2,6.8-7.6,9.3-10.3.9-1,1.8-1.8,2.8-2.7-.2-.2-.4-.4-.6-.5ZM582.7,246.4c-8,.1-10.1-12.4-10.3-18.4,0-1.8,0-4.5.3-7.4,0,0,0,0,0,0,.5,1.5,1.3,3.6,2.4,3.7,2.5.3,2.7-3,3.6-4.7.7-1.2,4.6-6.9,5.5-7.4,1.3-.8,3.4-.4,4-.8.9-.6-.6-1.8-.7-2.3-.2-.9.5-1,1.2-1.2-.1,0-.2,0-.4.1,3.4,4.4,4.3,12.4,4.4,16.7.1,6.2-1.5,21.6-10,21.7Z"/>
    </g>
    <g>
      <path d="M602,100.4c.2,0,.7-.3.9-.4-.7-.8-1.8-1.2-1.7-2.4,3,3.1,7.6,0,8.1-3.6s-.6-3.2.8-5.2,2.9-2.1,4.9-2.9,2.8-1.8,4.5-1.5,1.8.9,2.7.4.7-2,1-2.8c1.6-5.3,8.9-7.1,13.8-6.4s4.3,1,5.1,3,1.6,5.2,1.7,6.4-.4,2.1.5,3.2,1.6,1,1.8,2.1-.7,2.2-.9,3.2-.1,2.7-.4,3.9c-.6,2.2-2.4,1.5-4.1,2s-3.3,2.7-3.4,4.4,1,1.5,1.9,2.2c3.3,2.9,3.8,7.1,5.2,11s2.5,4.9,2.3,7.1c-.3,3.6-3.8,5.3-3.5,9.3s.2,1.2,1.1,1c2.5-1.6,7.7-2.5,9.9-4.2s.6-3.7,1.6-5.7,2.5-2.8,3.6-2.7c1.7.1,3.2,1.6,4.1,2.9,1.8,2.5,2,3.7-.1,6.1-1.9,2.2-10.7,7.5-13.7,9.4s-5.3,3.5-7.2,4.1-2.8-.7-3.3,1.8,0,5.4-.8,8.3c-.5,2-1.6,3.8-2,5.5-.6,2.5,1.4,3.5,2.8,5.1,6.1,6.9,10.2,14.4,15,22.2,1.7,2.7,3.6,4.6,3.9,8.1.5,4.9.7,7.8,2.1,12.6,1.4,4.9,3.2,11.3,5.1,15.9s3.9,7.1,6,7.4,3-1.9,4-1.8,1.7,2.6,3.3,2.8,2.8-.1,4.1-.4,4.2-1.6,5.2-1.6c1.4,0,1.7,1.9,1.5,3-.7,3.1-7.3,7-10.2,8.1s-2.6.6-3.8,1c-2.7,1-5.6,4.1-8.8,4-2.3,0-2.2-2.1-2.8-3.7s-1.8-2.8-1.6-4.7.8-1.6.4-2.5c-2.1-3.5-3.8-7.2-5.8-10.8-3.8-6.5-7.1-10.4-8.8-18.1s.2-8.7-4.2-12.8c-4.9-4.6-10.6-8.5-15.2-13.3s-2.9-3.7-3.7-3.8-.8.3-1.1.7c-1.3,1.4-2.5,3.4-3.8,5-2.7,3.1-5.6,5.4-8.5,8.1s-9.9,11.6-15,12.5-3.5,0-5.4,0c-4.2.2-9.6,1.9-13.9,2.7s-15.2,1.9-19.9,6.4-.4,1-.6,2c-.2,1.7-2.8,3.9-4.4,4.4s-.7,0-1,.1c-1.4.4-2.5,5.4-3.2,6.8-1.3,2.6-4.2,1.6-5.3-.6s-.7-3.7-.2-5.7c1.4-6.5,4-13.1,5.7-19.5.8-1.6,3-.5,4.4-.2s1.6.4,2.3.7c1,.4,2.1,1.6,3.1,1.6,1.9,0,5.7-1.5,7.5-2.3,6.2-2.7,10.3-7.5,17.6-7.5s5.3,1.5,8.3-.3c3.6-2.2,6.8-9.7,9.2-13.4s7.8-8.9,8.1-13.4c.1-1.9-.5-3.4-.1-5.3s.9-2.3,1.3-3.5l-.4-.3c-3.9.5-5.7.4-6.9-3.5-2.7-8.6-5.4-17.3-8.4-25.8-.3-2,0-3.5,1.4-4.9,2.6-2.5,8.8-6.7,12-8.4s3.6-1.5,5.3-2.3,3.6-2.8,5.4-4.1c2.9-2.1,7.1-4,9.4-6.7,1.9-2.2,0-2.1-1.5-3.3-2.8-2.2-2.3-4.2-2.8-7.2s-1.9-1.6-2.6-.2c-2,3.9.8,7.6-1.7,11.7s-2.7,2.4-4,3.8-2.1,3.2-3.2,4.6c-2.4,2.9-5.5,3.8-9.2,3.6s-6.9-.8-7.4-2.1c0-.4.2-.2.4-.2,1.5-.1,3.3.3,5,.2s1.9-.4,2.7-.7c0-.3-.3-.1-.5,0-1.5.2-2.9.5-4.5,0,.8-1,2.6-.6,3.5-1.5-2.2,0-4.5,0-6.7,0s-2.6.5-2.7,0,.2-.4.4-.4l8.1-2.8c0-.3-.4-.2-.6-.2-1.5,0-2.9.2-4.4.3,1.8-1.5,4.2-2,6.3-3,0-.2-.2-.3-.4-.3-1.5-.7-3.7-.6-4.9-1.8,1.6-.2,3.6.2,5.1,0ZM620,118.2c-.1-.1-.4-.2-.5-.2-.6,0-4.5,2.7-5.5,3.2s-1.9,1-2.9,1.4c-2.7,1.2-7.2,1.6-7.7,5-.6,4.1,1,14.1,3.5,17.5,1.4,1.9,3.3,2.1,5,3.5s1.5,1.6,1.9,1.6l.6-.2c2.4-3.4,7.4-7.1,7.9-11.3.5-4,.3-10.9-.7-14.8-.6-.8-1.2-5.2-1.7-5.6Z"/>
      <path class="st1" d="M666.8,246.8s0,0-.1,0c-2.2,0-2.6-1.7-2.9-3,0-.4-.2-.7-.3-1.1-.2-.5-.4-.9-.6-1.3-.6-1-1.1-2.1-1-3.5,0-.4.2-.7.3-1,.2-.5.3-.9.1-1.2-1.1-1.8-2-3.7-3-5.5-.9-1.7-1.8-3.5-2.8-5.2-.8-1.4-1.6-2.6-2.3-3.8-2.8-4.4-5.1-8.2-6.5-14.4-.4-1.6-.5-3.1-.6-4.4-.3-3.1-.5-5.4-3.5-8.2-2-1.9-4.3-3.7-6.4-5.5-3-2.5-6.1-5-8.8-7.8-.2-.2-.5-.6-.8-1-.6-.8-2.1-2.6-2.5-2.7-.2,0-.3,0-.6.4v.2c-.8.7-1.4,1.6-2.1,2.6-.6.8-1.2,1.7-1.8,2.4-1.9,2.2-3.8,3.9-5.8,5.7-.9.8-1.8,1.6-2.7,2.5-1,.9-2.1,2.1-3.2,3.3-3.6,3.8-8,8.6-12,9.3-1.3.2-2.4.2-3.4.1-.7,0-1.3,0-2.1,0-2.7.1-6,.9-9.1,1.7-1.6.4-3.2.8-4.7,1.1-1,.2-2.2.4-3.3.6-5.6.9-12.5,2.1-16.3,5.7-.5.4-.5.5-.4.9,0,.2,0,.5,0,.9-.3,2-3.1,4.2-4.8,4.8-.2,0-.4,0-.6,0-.2,0-.3,0-.4,0-.7.2-1.6,2.9-2.1,4.3-.3.9-.6,1.7-.8,2.2-.6,1.2-1.6,1.9-2.7,1.8-1.3,0-2.7-1-3.4-2.5-1-2.1-.7-4.1-.3-6,.8-3.8,2.1-7.7,3.2-11.4.8-2.7,1.7-5.5,2.4-8.1h0c.9-1.8,3-1.1,4.3-.7.2,0,.4.1.6.2h.4c.7.3,1.3.5,1.9.7.4.2.9.5,1.3.8.5.4,1.1.7,1.5.7,1.7,0,5.3-1.4,7.4-2.2,2-.9,3.9-2,5.6-3.1,3.7-2.3,7.2-4.4,12.2-4.4,1.1,0,2,.2,2.9.3,1.8.3,3.3.6,5.2-.6,2.5-1.5,4.9-5.9,6.8-9.4.8-1.4,1.5-2.8,2.2-3.8.8-1.2,1.7-2.4,2.8-3.7,2.4-3,5.1-6.4,5.3-9.5,0-.8,0-1.5-.1-2.2-.1-1-.2-2,0-3.1.2-.9.5-1.6.8-2.4.1-.3.2-.5.3-.8-3.9.5-5.9.2-7.2-3.9-.7-2.3-1.4-4.5-2.2-6.8-2-6.2-4-12.7-6.2-18.9-.4-2.4,0-4,1.5-5.4,2.3-2.2,7.5-5.8,11.1-7.9-1.1.2-2.3.3-3.7.2,0,0-7.1-.6-7.8-2.4h0c0-.2,0-.5.1-.7.2-.2.5-.2.6-.2.7,0,1.5,0,2.2,0l.3-.4c.3-.3.6-.5,1-.7-.1,0-.2,0-.4,0-1.1,0-2.3,0-3.5,0,0,0-.3,0-.5,0-1.2.2-2.6.4-2.8-.5,0-.2,0-.7.7-1l5.5-1.9c-.3,0-.6,0-.8,0-.4,0-.9.1-1.4.1h-1.5c0,.1,1.2-.9,1.2-.9,1.2-1.1,2.7-1.6,4.2-2.1.5-.2,1-.3,1.4-.5-.4-.1-.9-.2-1.4-.4-1.2-.3-2.4-.5-3.2-1.4l-.8-.7h1.1c.8-.2,1.7-.1,2.5,0,.9,0,1.8,0,2.5,0,0,0,0,0,.1,0,0,0,0,0-.1,0-.6-.5-1.3-1.1-1.2-2.2v-1.1c0,0,.9.8.9.8,1,1,2.3,1.4,3.7.9,1.8-.6,3.3-2.4,3.6-4.3,0-.6,0-1.2,0-1.7,0-1.1-.2-2.2.9-3.7,1.2-1.6,2.4-2,3.8-2.6.4-.2.8-.3,1.3-.5.4-.2.8-.4,1.2-.6,1.1-.6,2.2-1.2,3.6-1,.4,0,.7.2,1.1.3.6.2.9.4,1.3.2.3-.2.5-1,.6-1.6,0-.3.1-.7.2-.9,1.7-5.8,9.6-7.5,14.4-6.8,1.1.2,4.5.7,5.5,3.3.5,1.2,1.6,5.3,1.8,6.5,0,.5,0,.9,0,1.3,0,.7,0,1.1.4,1.6.2.2.4.4.6.5.5.4,1.2.9,1.3,1.8,0,.7-.2,1.5-.5,2.2-.2.4-.3.8-.4,1.2-.1.6-.2,1.3-.2,1.9,0,.7,0,1.4-.2,2-.5,1.9-1.8,2-3,2.1-.5,0-1,0-1.4.2-1.5.5-3,2.4-3,4,0,.7.2.9.9,1.2.3.2.6.3.9.6,2.6,2.2,3.5,5.3,4.4,8.3.3,1,.6,2,1,2.9.2.6.5,1.2.8,1.8.8,1.7,1.7,3.7,1.5,5.5-.1,1.7-1,3.1-1.8,4.3-.9,1.5-1.8,2.9-1.7,4.9,0,.4,0,.5.1.6,0,0,0,0,.3,0,1.2-.8,3-1.4,4.8-2,1.9-.7,3.9-1.3,5-2.2.9-.7.9-1.6.9-2.7,0-.9,0-1.9.5-2.8.5-1,2.7-3.1,4-3,2.1.2,3.8,2.2,4.5,3.1,1.8,2.5,2.2,4-.2,6.7-1.7,2-8.7,6.3-12.4,8.6l-1.4.9c-.3.2-.6.4-1,.6-2,1.3-4.7,3-6.3,3.5-.6.2-1.1.2-1.6.2-.9,0-1.1,0-1.4,1.3-.3,1.3-.3,2.5-.3,3.8,0,1.4,0,2.9-.4,4.6-.3,1.1-.7,2.1-1.1,3.1-.4.8-.7,1.6-.9,2.4-.4,1.7.5,2.5,1.6,3.6.4.3.7.7,1.1,1.1,5.2,5.9,8.9,12.1,12.8,18.6.7,1.2,1.4,2.4,2.2,3.6.4.6.8,1.2,1.2,1.8,1.3,1.9,2.5,3.7,2.8,6.5.4,4.9.7,7.8,2.1,12.6l.2.8c1.4,4.8,3.1,10.7,4.9,15.1.8,2.1,3.9,6.9,5.6,7.1.8,0,1.5-.5,2.2-1,.6-.5,1.2-.9,1.8-.8.3,0,.6.3,1,.9.6.7,1.5,1.8,2.4,1.9,1.2.2,2.6,0,3.9-.4.6-.1,1.4-.4,2.3-.8,1.2-.4,2.4-.9,3-.9h0c.6,0,1.1.2,1.4.7.6.8.7,2,.5,2.9-.7,3.5-7.9,7.5-10.5,8.4-.6.2-1.3.4-1.9.5-.7.1-1.3.3-1.9.5-.9.4-1.9,1-2.9,1.6-1.9,1.2-3.8,2.4-5.9,2.4ZM624.8,176.1c0,0,.1,0,.2,0,.7,0,1.5,1,3.2,3,.3.4.6.7.8.9,2.6,2.8,5.7,5.3,8.7,7.8,2.2,1.8,4.4,3.6,6.5,5.5,3.3,3.1,3.5,5.8,3.8,8.9.1,1.3.2,2.7.6,4.2,1.3,6,3.5,9.6,6.4,14.1.7,1.2,1.5,2.5,2.3,3.8,1,1.7,2,3.5,2.9,5.3.9,1.8,1.9,3.7,3,5.5.4.8.1,1.5,0,2.1-.1.3-.2.5-.2.8-.1,1.1.4,2,.9,3,.2.5.5.9.7,1.5.1.4.2.8.3,1.2.4,1.4.6,2.2,2,2.2,1.9,0,3.7-1.1,5.5-2.3,1.1-.7,2.1-1.3,3.1-1.7.6-.2,1.3-.4,2-.5.6-.1,1.2-.3,1.8-.5,3.1-1.1,9.3-4.9,9.9-7.7.1-.6,0-1.6-.3-2.1-.2-.2-.4-.3-.7-.3h0c-.5,0-1.6.4-2.7.8-.9.3-1.8.7-2.4.8-1.4.3-2.9.6-4.3.4-1.3-.2-2.3-1.5-3-2.3-.1-.2-.3-.4-.4-.5-.2,0-.7.4-1,.6-.8.6-1.7,1.3-2.9,1.2-2.6-.3-5.8-6.2-6.4-7.7-1.8-4.4-3.5-10.4-4.9-15.2l-.2-.8c-1.4-4.9-1.7-7.8-2.1-12.7-.2-2.5-1.3-4.2-2.6-6-.4-.6-.8-1.2-1.2-1.8-.7-1.2-1.5-2.4-2.2-3.6-3.9-6.5-7.6-12.7-12.7-18.5-.3-.3-.7-.7-1-1-1.2-1.1-2.5-2.3-1.9-4.6.2-.8.6-1.7.9-2.5.4-.9.8-1.9,1.1-2.9.4-1.5.4-3,.4-4.4,0-1.3,0-2.6.3-4,.4-2,1.3-2.1,2.4-2.1.4,0,.8,0,1.3-.1,1.5-.5,4.2-2.2,6.1-3.4.4-.2.7-.5,1-.7l1.4-.9c3.7-2.3,10.5-6.5,12.2-8.4,1.9-2.2,1.8-3.2.1-5.5-.4-.6-2-2.5-3.7-2.7-.8,0-2.6,1.5-3.1,2.4-.4.8-.4,1.6-.4,2.4,0,1.3,0,2.5-1.3,3.5-1.2.9-3.3,1.6-5.3,2.3-1.7.6-3.5,1.2-4.7,1.9h-.2c-.4.2-.9.2-1.2,0-.4-.3-.5-.8-.5-1.3-.2-2.3.8-3.9,1.8-5.5.8-1.2,1.5-2.4,1.7-3.9.1-1.5-.7-3.3-1.5-5-.3-.7-.6-1.3-.8-1.9-.4-1-.7-2-1-3-.9-3-1.7-5.8-4.1-7.8-.2-.2-.5-.3-.7-.5-.7-.4-1.4-.8-1.4-2.2,0-2,1.8-4.3,3.7-4.9.5-.2,1.1-.2,1.6-.3,1.3-.1,1.9-.2,2.2-1.4.1-.6.2-1.2.2-1.8,0-.7,0-1.4.2-2,0-.4.3-.9.5-1.3.3-.6.5-1.3.5-1.7,0-.5-.4-.8-.9-1.1-.3-.2-.6-.4-.8-.7-.7-.9-.6-1.6-.6-2.3,0-.3,0-.7,0-1.1-.1-1.1-1.3-5.1-1.7-6.2-.6-1.4-2.1-2.3-4.7-2.7-4.4-.7-11.7.8-13.3,6.1,0,.2-.1.5-.2.8-.1.9-.3,1.9-1.1,2.3-.8.5-1.6.1-2.2-.1-.3-.1-.6-.2-.8-.3-1.1-.2-2,.3-3,.9-.4.2-.8.4-1.2.6-.5.2-.9.4-1.3.5-1.3.5-2.4.9-3.3,2.2-.8,1.1-.8,2-.7,3,0,.6,0,1.2,0,1.9-.3,2.2-2.1,4.4-4.3,5.1-1,.3-1.9.3-2.8,0,.2.2.4.3.5.5l.5.5-.7.2c0,0-.2,0-.3.2-.3.2-.5.3-.7.3h0c-.8.1-1.8,0-2.7,0-.1,0-.2,0-.3,0,.3,0,.7.2,1.1.3.7.2,1.4.3,2,.6.2,0,.7.3.7.8v.3s-.3.1-.3.1c-.8.4-1.6.7-2.4,1-.7.3-1.5.5-2.1.8.8,0,1.5-.1,2.4-.1,0,0,0,0,.1,0,.2,0,.5,0,.8.2.1.1.2.3.2.5v.3s-7.5,2.6-7.5,2.6c.3,0,.5,0,.7,0,.3,0,.5,0,.6,0,1.2,0,2.4,0,3.5,0,1.1,0,2.2,0,3.2,0h1.2s-.8.8-.8.8c-.5.5-1.2.7-1.9.8.6,0,1.3-.1,2-.2h.5c.2-.1.6-.2.8,0,0,0,.2.3.2.6v.3s-.4,0-.4,0c-.2,0-.5.1-.7.2-.7.2-1.4.4-2.1.5-.9,0-1.8,0-2.7,0-.6,0-1.2,0-1.8-.1,1.3.6,4.8,1.2,6.5,1.3,4,.2,6.7-.8,8.8-3.4.5-.6.9-1.3,1.4-2,.6-.9,1.2-1.8,1.9-2.6.5-.6,1.1-1,1.7-1.4.9-.6,1.7-1.3,2.3-2.3,1.2-2,1.1-3.9.9-5.9-.1-1.9-.3-3.8.8-5.8.5-.9,1.4-1.5,2.2-1.4.7.1,1.2.8,1.4,1.7,0,.6.1,1.2.2,1.7.2,2.1.3,3.5,2.4,5.1.3.3.7.5,1.1.7.7.4,1.3.7,1.4,1.4,0,.6-.2,1.2-.9,2-1.6,1.9-4,3.3-6.3,4.7-1.2.7-2.2,1.3-3.2,2-.7.5-1.3,1-2,1.6-1.1.9-2.2,1.9-3.5,2.5-.8.4-1.6.7-2.4,1-1,.4-2,.8-3,1.3-3.4,1.8-9.5,5.9-11.9,8.3-1.3,1.2-1.6,2.4-1.3,4.5,2.2,6.2,4.2,12.7,6.2,18.9.7,2.3,1.4,4.6,2.2,6.8,1.1,3.5,2.6,3.7,6.4,3.2h.2s.9.5.9.5v.4c-.3.4-.5.8-.6,1.2-.3.7-.6,1.4-.8,2.2-.2,1,0,1.9,0,2.8,0,.8.2,1.5.1,2.4-.2,3.3-3,6.9-5.5,10-1,1.3-2,2.5-2.7,3.6-.7,1-1.4,2.3-2.2,3.8-2.1,3.8-4.5,8.1-7.2,9.8-2.2,1.3-4,1-5.8.7-.9-.2-1.8-.3-2.8-.3-4.7,0-8.1,2.1-11.6,4.3-1.8,1.1-3.7,2.3-5.8,3.2-1.9.8-5.8,2.2-7.7,2.3-.8,0-1.5-.5-2.2-.9-.4-.3-.8-.5-1.1-.7-.5-.2-1.2-.4-1.8-.6h-.4c-.2-.2-.4-.2-.7-.3-1.5-.5-2.7-.8-3.1,0-.7,2.7-1.6,5.4-2.4,8.1-1.2,3.7-2.4,7.6-3.2,11.3-.4,1.8-.7,3.5.2,5.3.5,1.1,1.5,1.9,2.5,1.9,0,0,0,0,0,0,.7,0,1.4-.4,1.8-1.3.2-.4.5-1.2.8-2,.9-2.7,1.6-4.6,2.7-5,.3,0,.5,0,.7,0,.1,0,.3,0,.3,0,1.6-.5,3.9-2.5,4.1-4,0-.3,0-.5,0-.7,0-.6,0-.9.7-1.6,4-3.8,11.1-5,16.8-5.9,1.2-.2,2.3-.4,3.3-.6,1.4-.3,3-.7,4.6-1,3.2-.8,6.5-1.6,9.3-1.7.8,0,1.5,0,2.2,0,1,0,2,.1,3.2,0,3.7-.7,8-5.3,11.5-9,1.2-1.3,2.3-2.4,3.3-3.4.9-.9,1.8-1.7,2.7-2.5,2-1.8,3.9-3.5,5.7-5.6.6-.7,1.2-1.5,1.8-2.3.7-.9,1.4-1.9,2.1-2.7h.1c.3-.4.6-.8,1.3-.8ZM622.4,88.8c-.3,0-.7.2-1,.8-.9,1.7-.8,3.4-.6,5.3.2,2.1.3,4.2-1.1,6.5-.7,1.2-1.6,1.9-2.5,2.5-.6.4-1.1.8-1.6,1.3-.7.7-1.2,1.6-1.8,2.5-.4.7-.9,1.4-1.4,2.1-.4.5-.9,1-1.4,1.4.6-.3,1.3-.5,1.9-.8,1.1-.6,2.2-1.5,3.3-2.4.7-.6,1.3-1.2,2-1.7,1-.7,2.1-1.4,3.3-2.1,2.2-1.4,4.6-2.8,6.1-4.5.7-.8.7-1.1.7-1.2,0-.2-.5-.4-.9-.7-.4-.2-.8-.4-1.2-.7-2.4-1.9-2.6-3.7-2.8-5.8,0-.5,0-1.1-.2-1.7,0-.5-.3-.8-.6-.8,0,0,0,0,0,0ZM613.9,150.6h-.1c-.4,0-.7-.4-1.5-1.2-.2-.2-.5-.5-.6-.6-.6-.5-1.3-.8-1.9-1.1-1.1-.6-2.2-1.1-3.2-2.4-2.6-3.5-4.1-13.7-3.6-17.8.4-2.8,3.3-3.8,5.8-4.6.8-.2,1.5-.5,2.1-.8,1-.4,2.1-1,2.8-1.4.3-.2.9-.6,1.7-1,2.6-1.6,3.6-2.2,4-2.2.3,0,.7.1.9.3h0s0,0,0,0h0c.3.3.5.9.9,2.7.3,1.1.6,2.6.9,3v.2c1.1,4.1,1.2,11,.8,15-.4,3.1-2.9,5.8-5.2,8.2-1.1,1.2-2.1,2.2-2.8,3.3h0c0,.1-.8.5-.8.5ZM619.5,118.5c-.4,0-2.4,1.4-3.5,2.1-.8.5-1.4.9-1.7,1-.8.4-1.9,1-2.9,1.5-.7.3-1.4.5-2.2.8-2.4.8-4.8,1.6-5.2,3.8-.5,3.9.9,13.8,3.4,17.1.8,1.1,1.8,1.6,2.8,2.1.7.3,1.4.7,2.1,1.2.2.1.4.4.7.7.2.2.6.7.9.8h.2c.8-1.2,1.8-2.3,2.8-3.4,2.3-2.4,4.6-5,4.9-7.7.5-3.9.3-10.6-.6-14.5-.3-.5-.6-1.6-1-3.2-.2-.8-.4-1.9-.6-2.2,0,0-.1,0-.2,0Z"/>
    </g>
    <text class="st2" transform="translate(141.4 94.8)"><tspan x="0" y="0">S W M O</tspan></text>
  </g>
</svg>